<svg width="48" height="48" viewBox="0 0 48 48" fill="none" xmlns="http://www.w3.org/2000/svg">
<path fill-rule="evenodd" clip-rule="evenodd" d="M24 -0.00170898C10.7453 -0.00170898 -3.05176e-05 10.7436 -3.05176e-05 23.9983C-3.05176e-05 37.253 10.7453 47.9983 24 47.9983C37.2547 47.9983 48 37.253 48 23.9983C48 10.7436 37.2547 -0.00170898 24 -0.00170898ZM32.0747 13.6116H29.2472C27.6846 13.6116 26.0483 14.5787 26.0483 16.2897V20.9029H31.8516L30.8846 27.004H26.0483V42.1074H19.501V27.004H13.9954V20.9029H19.501V16.3644C19.501 11.8259 22.179 8.03138 27.0153 8.32918L32.0747 8.55226V13.6116Z" fill="white"/>
</svg>
