<svg width="49" height="49" viewBox="0 0 49 49" fill="none" xmlns="http://www.w3.org/2000/svg">
<path fill-rule="evenodd" clip-rule="evenodd" d="M31.0141 11.8181H17.3841C14.3153 11.8181 11.8181 14.3804 11.8181 17.5269V31.434C11.8181 34.5816 14.3163 37.1428 17.3841 37.1428H31.0141C34.0829 37.1428 36.58 34.5805 36.58 31.434V17.5269C36.58 14.3793 34.0819 11.8181 31.0141 11.8181ZM24.235 32.8246H24.1632C19.7385 32.8246 16.0991 29.0918 16.0991 24.4799C16.0991 19.8681 19.7385 16.1352 24.1632 16.1352H24.235C28.6597 16.1352 32.371 19.9417 32.371 24.4799C32.371 29.0181 28.6597 32.8246 24.235 32.8246ZM32.2283 18.0395C31.2297 18.0395 30.5153 17.2342 30.5153 16.2826C30.5153 15.331 31.2286 14.5256 32.2283 14.5256C33.1561 14.5256 33.9413 15.331 33.9413 16.2826C33.9413 17.2342 33.1561 18.0395 32.2283 18.0395Z" fill="white"/>
<path fill-rule="evenodd" clip-rule="evenodd" d="M24.2366 18.5703H24.1616C21.1055 18.5703 18.5714 21.1046 18.5714 24.161C18.5714 27.2174 21.1055 29.8257 24.1616 29.8257H24.2366C27.2928 29.8257 29.8268 27.2914 29.8268 24.161C29.8268 21.0307 27.2928 18.5703 24.2366 18.5703Z" fill="white"/>
<path fill-rule="evenodd" clip-rule="evenodd" d="M24.1991 -0.00170898C10.8344 -0.00170898 -3.05176e-05 10.8327 -3.05176e-05 24.1974C-3.05176e-05 37.5621 10.8344 48.3966 24.1991 48.3966C37.5638 48.3966 48.3982 37.5621 48.3982 24.1974C48.3982 10.8327 37.5638 -0.00170898 24.1991 -0.00170898ZM39.6506 31.278C39.6506 35.8509 35.8892 39.6123 31.3162 39.6123H17.0809C12.508 39.6123 8.74653 35.8509 8.74653 31.278V17.1169C8.74653 12.544 12.508 8.78252 17.0809 8.78252H31.3162C35.8892 8.78252 39.6506 12.544 39.6506 17.1169V31.278Z" fill="white"/>
</svg>
