<svg width="68" height="349" viewBox="0 0 68 349" fill="none" xmlns="http://www.w3.org/2000/svg">
<path d="M39.391 283.098C39.391 280.089 39.4111 277.081 39.391 274.073C39.391 273.037 39.4311 271.961 40.7938 272.001C42.0162 272.021 42.0763 273.057 42.0763 274.033C42.0763 279.571 42.0563 285.11 42.0963 290.628C42.1565 298.856 46.6653 305.291 54.4005 308.16C55.9636 308.737 57.6068 309.116 59.3102 309.116C61.4143 309.116 63.5184 309.176 65.6426 309.136C66.6245 309.116 67.4862 309.415 67.5263 310.431C67.5864 311.626 66.6045 311.845 65.6025 311.845C63.819 311.845 62.0355 311.805 60.252 311.865C52.4166 312.144 46.8858 315.909 43.5793 322.902C42.6174 324.954 42.1364 327.185 42.1164 329.456C42.0763 334.297 42.0963 339.119 42.0963 343.96C42.0963 344.936 42.0963 345.892 42.0963 346.868C42.0963 347.845 42.1765 348.98 40.7738 349C39.391 349 39.4111 347.924 39.4111 346.908C39.4311 342.027 39.4311 337.126 39.4111 332.246C39.4111 330.094 39.4111 327.982 38.9101 325.851C37.0865 318.041 30.0527 312.184 21.9568 311.905C19.9528 311.825 17.9489 311.865 15.965 311.865C14.9831 311.865 13.9611 311.726 14.0011 310.491C14.0412 309.335 14.9831 309.156 16.0051 309.136C19.2314 309.076 22.4778 309.375 25.6841 308.578C33.259 306.705 39.1305 299.713 39.391 291.943C39.4912 288.995 39.4111 286.026 39.4111 283.078C39.371 283.098 39.371 283.098 39.391 283.098ZM52.2363 310.75C52.1962 310.351 51.9958 310.172 51.7353 310.072C46.8657 307.881 43.2787 304.414 41.0944 299.533C40.9942 299.294 40.914 298.976 40.5734 299.015C40.1926 299.035 40.1125 299.394 39.9722 299.673C37.868 304.394 34.3812 307.741 29.712 309.913C29.3713 310.072 28.9305 310.172 28.9706 310.63C29.0106 311.009 29.4515 310.969 29.7321 311.108C33.8602 313.041 37.0063 316.029 39.3109 319.934C39.7317 320.651 39.7317 321.986 40.5934 321.966C41.3549 321.946 41.415 320.631 41.8358 319.914C44.3207 315.73 47.7274 312.602 52.2363 310.75Z" fill="white"/>
<path d="M52.2363 310.749C47.7475 312.602 44.3207 315.73 41.8559 319.914C41.4351 320.631 41.3549 321.946 40.6135 321.966C39.7518 321.986 39.7518 320.651 39.3309 319.934C37.0264 316.029 33.8802 313.041 29.7521 311.108C29.4716 310.969 29.0307 311.008 28.9906 310.63C28.9305 310.172 29.3914 310.072 29.7321 309.913C34.4213 307.741 37.8881 304.374 39.9922 299.673C40.1325 299.374 40.2127 299.035 40.5934 299.015C40.9341 298.995 40.9942 299.294 41.1144 299.533C43.2987 304.414 46.8858 307.881 51.7554 310.072C51.9758 310.172 52.1962 310.331 52.2363 310.749Z" fill="white"/>
<path d="M7.8724 5.79859C9.85736 4.36098 11.7172 0.306619 14.6855 0.389871C17.6538 0.473124 19.4133 4.49724 21.7383 6.7365C23.6507 8.5689 25.4024 10.5505 27.2466 12.4249C28.5264 13.7345 28.719 14.794 27.1384 16.1551C23.4484 19.3895 19.8662 22.7587 16.3274 26.1731C14.6038 27.8376 13.2833 27.9324 11.5947 26.0843C8.39156 22.5467 5.07432 19.0938 1.66463 15.7481C0.0353433 14.1652 -0.108822 12.9753 1.6995 11.4668C3.6226 9.85181 5.41689 8.05749 7.85008 5.79797L7.8724 5.79859Z" fill="white"/>
</svg>
