<svg width="62" height="196" viewBox="0 0 62 196" fill="none" xmlns="http://www.w3.org/2000/svg">
<path d="M45.2008 153.197C45.2008 151.245 45.2008 149.293 45.2008 147.342C45.2008 146.665 45.2254 145.974 46.0364 146.001C46.7737 146.014 46.8105 146.691 46.8105 147.315C46.8105 150.913 46.7983 154.498 46.8105 158.096C46.8474 163.433 49.5385 167.615 54.1587 169.487C55.0926 169.859 56.0756 170.098 57.0955 170.111C58.3489 170.111 59.6145 170.151 60.8679 170.124C61.4577 170.124 61.9738 170.297 61.9984 170.961C62.0352 171.731 61.4454 171.877 60.8433 171.877C59.7742 171.877 58.7052 171.85 57.6484 171.89C52.9668 172.062 49.6613 174.505 47.683 179.059C47.1055 180.387 46.8228 181.834 46.8105 183.321C46.786 186.454 46.7983 189.601 46.7983 192.734C46.7983 193.358 46.7983 193.995 46.7983 194.619C46.7983 195.257 46.8474 196 46.0118 196C45.1885 196 45.2008 195.31 45.2008 194.646C45.2008 191.473 45.2008 188.3 45.2008 185.127C45.2008 183.733 45.2008 182.352 44.8936 180.971C43.8123 175.899 39.5976 172.102 34.7561 171.916C33.5642 171.877 32.3723 171.89 31.1681 171.89C30.5783 171.89 29.9762 171.797 30.0007 171C30.0253 170.244 30.5783 170.137 31.1927 170.124C33.1218 170.084 35.051 170.283 36.9802 169.766C41.5145 168.557 45.0165 164.004 45.164 158.972C45.2254 157.06 45.164 155.135 45.164 153.223C45.164 153.223 45.164 153.223 45.1763 153.223L45.2008 153.197ZM52.8685 171.146C52.8439 170.881 52.721 170.775 52.5736 170.708C49.6613 169.288 47.5232 167.031 46.2207 163.871C46.1593 163.712 46.1101 163.512 45.9135 163.526C45.6801 163.539 45.6309 163.765 45.5572 163.964C44.2915 167.017 42.2272 169.208 39.4255 170.615C39.2289 170.722 38.9586 170.775 38.9832 171.08C39.0077 171.332 39.2781 171.306 39.4378 171.385C41.9077 172.647 43.7754 174.585 45.1517 177.121C45.3974 177.586 45.3974 178.448 45.9258 178.435C46.3805 178.435 46.4173 177.572 46.6754 177.108C48.1499 174.386 50.1897 172.355 52.8808 171.146H52.8685Z" fill="white"/>
<path d="M52.8808 171.133C50.1897 172.341 48.1622 174.373 46.6754 177.094C46.4174 177.559 46.3805 178.409 45.9259 178.422C45.4098 178.435 45.4098 177.572 45.1517 177.108C43.7755 174.572 41.8954 172.634 39.4379 171.372C39.2781 171.293 39.0078 171.319 38.9832 171.067C38.9463 170.762 39.2167 170.708 39.4256 170.602C42.2272 169.195 44.2916 167.004 45.5572 163.951C45.6309 163.765 45.6924 163.539 45.9136 163.513C46.1102 163.499 46.1593 163.698 46.2208 163.858C47.5233 167.018 49.6614 169.275 52.5736 170.695C52.721 170.762 52.8439 170.881 52.8685 171.133H52.8808Z" fill="white"/>
<path d="M19.448 10.2329C19.448 7.4591 19.4634 4.68527 19.448 1.91144C19.448 0.956216 19.4787 -0.0357492 20.5225 0.000990245C21.4587 0.01936 21.5048 0.974586 21.5048 1.8747C21.5048 6.98149 21.4894 12.0883 21.5201 17.1767C21.5662 24.7634 25.0197 30.6968 30.9444 33.3421C32.1416 33.8748 33.4002 34.2238 34.7049 34.2238C36.3165 34.2238 37.9282 34.2789 39.5552 34.2422C40.3073 34.2238 40.9673 34.4993 40.998 35.4362C41.044 36.5384 40.2919 36.7405 39.5245 36.7405C38.1584 36.7405 36.7924 36.7037 35.4263 36.7588C29.4249 37.016 25.1885 40.4879 22.656 46.9357C21.9192 48.8277 21.5508 50.8851 21.5355 52.9793C21.5048 57.4431 21.5201 61.8886 21.5201 66.3525C21.5201 67.2526 21.5201 68.1343 21.5201 69.0344C21.5201 69.9345 21.5815 70.9816 20.5071 71C19.448 71 19.4634 70.008 19.4634 69.0712C19.4787 64.5706 19.4787 60.0516 19.4634 55.5511C19.4634 53.5671 19.4634 51.6199 19.0797 49.6544C17.6829 42.4534 12.2954 37.0527 6.09442 36.7956C4.55952 36.7221 3.02462 36.7588 1.50507 36.7588C0.752974 36.7588 -0.0298234 36.6302 0.000874565 35.4913C0.0315725 34.4259 0.752974 34.2605 1.53577 34.2422C4.00696 34.1871 6.49349 34.4626 8.94933 33.7278C14.7512 32.0011 19.2485 25.5533 19.448 18.3891C19.5248 15.6704 19.4634 12.9333 19.4634 10.2146C19.4327 10.2329 19.4327 10.2329 19.448 10.2329ZM29.2867 35.7301C29.256 35.3627 29.1025 35.1974 28.903 35.1055C25.1732 33.0849 22.4257 29.8885 20.7527 25.388C20.6759 25.1675 20.6146 24.8736 20.3536 24.9103C20.062 24.9287 20.0006 25.2594 19.8931 25.5165C18.2815 29.8702 15.6108 32.9563 12.0345 34.9586C11.7735 35.1055 11.4359 35.1974 11.4666 35.6199C11.4973 35.9689 11.8349 35.9322 12.0498 36.0608C15.2117 37.8426 17.6215 40.5981 19.3866 44.1986C19.709 44.8599 19.709 46.0906 20.369 46.0723C20.9522 46.0539 20.9983 44.8415 21.3206 44.1802C23.2239 40.3225 25.8332 37.4385 29.2867 35.7301Z" fill="white"/>
<path d="M29.2868 35.73C25.8486 37.4384 23.2239 40.3225 21.336 44.1801C21.0137 44.8414 20.9523 46.0538 20.3844 46.0722C19.7244 46.0906 19.7244 44.8598 19.402 44.1985C17.6369 40.598 15.2271 37.8426 12.0652 36.0607C11.8503 35.9321 11.5127 35.9688 11.482 35.6198C11.4359 35.1973 11.7889 35.1055 12.0499 34.9585C15.6415 32.9562 18.2969 29.8517 19.9085 25.5165C20.016 25.2409 20.0774 24.9286 20.369 24.9103C20.6299 24.8919 20.676 25.1674 20.7681 25.3879C22.4411 29.8885 25.1886 33.0848 28.9184 35.1055C29.0872 35.1973 29.2561 35.3443 29.2868 35.73Z" fill="white"/>
</svg>
