<svg width="1074" height="844" viewBox="0 0 1074 844" fill="none" xmlns="http://www.w3.org/2000/svg">
<g clip-path="url(#clip0_73_55)">
<path d="M134.25 764.878C58.7797 764.549 0 719.608 0 662.47C0 604.564 60.2312 559.843 137.298 560.392C212.042 560.942 271.112 606.871 270.677 663.789C270.096 720.157 209.285 765.318 134.25 764.878ZM135.556 728.947C184.322 728.947 226.991 697.412 227.572 660.603C228.152 623.463 184.322 590.609 134.685 590.939C85.4846 591.269 45.137 622.474 44.7016 660.382C44.4114 697.412 86.0651 728.947 135.556 728.947Z" fill="white"/>
<path d="M280.297 194.932C248.512 204.931 224.565 221.743 207.003 244.268C203.956 248.114 203.52 255.146 198.15 255.257C192.054 255.366 192.054 248.224 189.007 244.378C172.751 223.391 150.546 207.348 121.518 196.91C119.632 196.25 116.439 196.471 116.148 194.383C115.713 191.856 118.906 191.416 121.373 190.537C154.464 178.89 178.847 160.76 193.796 135.487C194.667 133.949 195.393 132.081 198.005 131.861C200.327 131.751 200.908 133.4 201.633 134.718C217.018 160.869 242.271 179.549 276.668 191.307C278.41 191.856 279.861 192.844 280.151 194.932H280.297Z" fill="white"/>
<path d="M670.182 121.218C670.182 88.3445 670.182 55.4717 670.182 22.5987C670.182 11.1938 670.772 -0.434747 690.267 0.0125028C707.989 0.236128 708.876 11.6411 708.876 22.1514C708.876 82.7539 708.58 143.133 708.876 203.735C709.762 293.632 774.45 364.074 885.51 395.606C907.96 401.867 931.589 405.892 956.105 406.116C986.234 406.116 1016.66 406.787 1046.79 406.339C1060.96 406.339 1073.37 409.247 1073.96 420.428C1074.85 433.398 1060.67 435.858 1046.19 435.858C1020.5 435.858 994.8 435.411 969.397 436.081C856.859 438.989 777.403 480.136 729.847 556.839C715.965 579.202 709.171 603.577 708.876 628.623C708.286 681.399 708.58 734.398 708.58 787.174C708.58 797.684 708.58 808.418 708.58 818.928C708.58 829.663 709.762 842.185 689.676 842.185C669.886 842.185 670.182 830.557 670.182 819.376C670.182 765.929 670.182 712.482 670.182 659.036C670.182 635.555 670.182 612.299 662.797 589.041C636.804 503.617 535.491 439.66 419.111 436.529C390.46 435.858 361.809 436.081 332.862 436.081C318.683 436.081 304.21 434.516 304.801 421.099C305.392 408.352 318.683 406.564 333.452 406.339C379.827 405.669 426.201 409.023 472.575 400.301C581.568 379.951 665.751 303.248 669.295 218.494C670.772 186.292 669.295 153.867 669.295 121.665C669.295 121.665 669.295 121.665 669.591 121.665L670.182 121.218ZM854.496 423.559C853.905 419.086 850.952 417.297 847.406 416.179C777.403 392.251 726.008 354.235 694.698 301.012C693.221 298.329 692.039 294.974 687.314 295.198C681.701 295.421 680.52 299.223 678.748 302.578C648.323 354.011 598.7 390.91 531.354 414.614C526.629 416.402 520.131 417.297 520.722 422.44C521.312 426.69 527.81 426.242 531.65 427.584C591.021 448.829 635.918 481.478 669 524.19C674.907 532.017 674.907 546.553 687.608 546.329C698.537 546.329 699.424 531.794 705.627 523.967C741.072 478.123 790.104 443.909 854.791 423.559H854.496Z" fill="white"/>
<path d="M854.792 423.339C790.105 443.689 741.368 477.903 705.628 523.747C699.425 531.574 698.538 545.886 687.61 546.109C675.203 546.333 675.203 531.797 669 523.97C635.918 481.258 590.726 448.608 531.652 427.364C527.811 426.022 521.312 426.469 520.722 422.22C519.836 417.078 526.334 416.183 531.356 414.393C598.701 390.69 648.324 353.791 678.749 302.358C680.521 299.227 681.997 295.425 687.315 294.978C692.041 294.754 693.222 298.109 694.699 300.792C726.008 354.015 777.405 392.031 847.408 415.959C850.952 417.078 853.907 419.09 854.498 423.339H854.792Z" fill="white"/>
</g>
<defs>
<clipPath id="clip0_73_55">
<rect width="1074" height="844" fill="white"/>
</clipPath>
</defs>
</svg>
