<svg width="909" height="542" viewBox="0 0 909 542" fill="none" xmlns="http://www.w3.org/2000/svg">
<path d="M798.763 186.407C798.899 181.664 799.034 176.921 799.169 172.178C799.216 170.545 799.358 168.852 802.548 169.006C805.41 169.119 805.504 170.756 805.46 172.295C805.211 181.027 804.915 189.757 804.713 198.459C804.484 211.435 814.754 221.881 832.741 226.921C836.375 227.936 840.207 228.642 844.196 228.756C849.123 228.897 854.049 229.132 859.025 229.211C861.325 229.276 863.33 229.774 863.378 231.378C863.465 233.267 861.156 233.547 858.809 233.48C854.632 233.36 850.457 233.178 846.278 233.154C827.915 233.07 814.793 238.637 806.735 249.44C804.39 252.611 803.163 256.097 803.014 259.676C802.702 267.306 802.533 274.908 802.315 282.54C802.271 284.079 802.228 285.587 802.184 287.126C802.14 288.665 802.277 290.461 798.991 290.398C795.752 290.306 795.848 288.611 795.893 287.009C796.113 279.314 796.333 271.588 796.553 263.892C796.65 260.5 796.745 257.171 795.667 253.777C791.748 241.343 775.538 231.638 756.591 230.658C751.901 230.398 747.206 230.327 742.56 230.195C740.261 230.129 737.873 229.841 738.023 227.896C738.169 226.077 740.382 225.857 742.777 225.894C750.335 226.016 757.925 226.704 765.47 225.662C783.294 223.215 797.359 212.583 798.319 200.351C798.686 195.709 798.585 191.022 798.717 186.374C798.717 186.374 798.717 186.374 798.764 186.375L798.763 186.407ZM827.603 230.829C827.528 230.198 827.066 229.902 826.461 229.728C815.155 225.947 806.91 220.243 802.014 212.401C801.79 212.018 801.617 211.51 800.817 211.55C799.925 211.556 799.721 212.116 799.38 212.546C794.24 219.85 785.923 224.893 774.891 228.005C774.086 228.233 773.049 228.361 773.122 229.086C773.199 229.686 774.233 229.652 774.884 229.891C784.465 233.213 791.698 238.135 796.92 244.445C797.873 245.604 797.813 247.708 799.832 247.734C801.615 247.785 801.816 245.685 802.834 244.582C808.795 238.151 816.961 233.449 827.556 230.828L827.603 230.829Z" fill="white"/>
<path d="M827.603 230.829C817.007 233.45 808.841 238.152 802.88 244.583C801.862 245.686 801.616 247.754 799.878 247.735C797.859 247.709 797.919 245.605 796.966 244.446C791.745 238.136 784.511 233.214 774.93 229.892C774.279 229.653 773.245 229.687 773.168 229.087C773.048 228.361 774.132 228.235 774.937 228.006C786.016 224.896 794.287 219.819 799.426 212.547C799.768 212.086 799.971 211.557 800.864 211.551C801.662 211.542 801.79 212.018 802.06 212.402C806.956 220.244 815.201 225.948 826.507 229.729C827.065 229.933 827.574 230.199 827.65 230.83L827.603 230.829Z" fill="white"/>
<path d="M35.3215 78.0554C30.1841 80.8695 25.2941 81.1352 20.9712 78.8138C16.3503 76.3384 15.1474 72.9531 19.7644 69.6663C23.5693 66.978 28.662 66.7299 32.6915 68.9287C37.0508 71.3271 38.0639 74.6144 35.3215 78.0554Z" fill="white"/>
<path d="M891.291 426.422C887.194 429.067 882.497 429.199 878.489 427.221C874.046 425.019 871.571 421.715 876.084 418.327C879.99 415.409 885.492 415.46 889.714 417.693C893.936 419.926 894.526 423.042 891.291 426.422Z" fill="white"/>
<path d="M483.886 446.54C479.49 444.036 477.672 440.866 481.255 437.809C484.638 434.938 489.952 434.978 494.169 437.132C498.551 439.37 500.104 442.463 496.395 445.685C492.749 448.824 488.094 448.459 483.886 446.54Z" fill="white"/>
<path d="M375.102 222.244C370.629 220.029 368.738 217.114 372.591 213.823C376.133 210.807 381.164 210.876 385.391 212.792C389.886 214.816 392.04 217.808 387.971 221.161C384.37 224.117 379.668 224.073 375.08 222.262L375.102 222.244Z" fill="white"/>
<path d="M517.917 329.886C515.683 330.136 513.449 330.385 511.22 330.666C509.425 330.909 508.462 330.487 508.238 329.262C507.66 326.233 507.029 323.176 506.403 320.152C506.153 318.913 506.858 318.21 508.803 317.987C513.249 317.507 517.738 316.991 522.175 316.446C524.093 316.209 525.017 316.699 525.272 317.971C525.828 321.018 526.433 324.061 527.107 327.081C527.357 328.32 526.638 328.925 524.807 329.089C522.52 329.31 520.194 329.601 517.891 329.872L517.917 329.886ZM516.175 319.719C514.734 319.881 513.324 320.089 511.852 320.205C510.573 320.303 510.264 320.707 510.45 321.494C510.876 323.455 511.28 325.434 511.609 327.403C511.742 328.162 512.29 328.244 513.223 328.111C514.563 327.925 515.939 327.819 517.3 327.615C519.214 327.345 521.772 327.657 522.888 326.754C524.086 325.746 522.813 324.172 522.575 322.85C521.887 319.044 521.838 319.049 516.122 319.691L516.175 319.719Z" fill="white"/>
<path d="M266.405 115.222C270.745 111.273 278.493 110.363 284.23 113.143C289.967 115.922 291.021 121.271 286.589 125.26C282.332 129.102 274.29 130.006 268.703 127.246C263.115 124.486 262.113 119.165 266.41 115.254L266.405 115.222ZM281.502 115.224C277.752 113.381 272.372 113.963 269.494 116.534C266.595 119.123 267.362 122.972 271.081 124.769C274.717 126.492 280.446 125.796 283.162 123.289C285.966 120.709 285.204 117.072 281.502 115.224Z" fill="white"/>
<path d="M81.773 80.7414L214.774 111.836" stroke="white" stroke-width="2.57" stroke-miterlimit="10" stroke-linecap="round"/>
<path d="M334.087 140.417L332.95 198.842" stroke="white" stroke-width="2.57" stroke-miterlimit="10" stroke-linecap="round"/>
<path d="M445.32 232.147L448.946 311.536" stroke="white" stroke-width="2.57" stroke-miterlimit="10" stroke-linecap="round"/>
<path d="M612.401 333.7L789.655 413.987" stroke="white" stroke-width="2.57" stroke-miterlimit="10" stroke-linecap="round"/>
<path d="M501.118 337.123L487.632 424.581" stroke="white" stroke-width="2.57" stroke-miterlimit="10" stroke-linecap="round"/>
<path d="M871.999 511.462L697.032 514.078L584.238 434.564" stroke="white" stroke-width="2.57" stroke-miterlimit="10" stroke-linecap="round"/>
<path d="M154.295 11.9807C158.439 9.96137 162.267 4.19234 168.509 4.37041C174.751 4.54847 178.531 10.3459 183.464 13.5987C187.521 16.2606 191.244 19.133 195.158 21.8538C197.875 23.7545 198.302 25.2755 195.006 27.1933C187.314 31.7519 179.851 36.5056 172.48 41.3249C168.891 43.6743 166.116 43.7838 162.529 41.1038C155.724 35.9745 148.681 30.9641 141.445 26.1054C137.988 23.8064 137.661 22.0996 141.432 19.9753C145.442 17.7007 149.178 15.1668 154.248 11.9794L154.295 11.9807Z" fill="white"/>
</svg>
