<svg width="1128" height="677" viewBox="0 0 1128 677" fill="none" xmlns="http://www.w3.org/2000/svg">
<path d="M325.295 176.89C325.749 182.003 330.521 185.176 334.611 188.526C351.427 202.982 368.243 217.437 385.058 231.717C387.331 233.656 391.421 235.067 389.603 238.416C387.785 241.589 383.468 240.532 380.059 240.532C355.745 241.766 331.203 243.176 306.661 243.705C289.618 244.058 281.892 249.523 282.119 263.273C282.119 281.255 280.529 299.413 279.393 317.395C279.393 320.392 281.21 324.447 276.666 326.21C270.985 328.325 268.031 324.271 264.622 321.979C246.897 309.462 229.173 297.122 211.903 284.252C200.768 275.79 190.77 275.79 179.408 284.252C160.774 298.003 141.459 311.225 122.371 324.447C120.326 325.857 117.144 327.973 115.099 327.62C110.554 326.915 111.691 323.389 111.463 320.745C110.554 300.824 109.191 280.903 108.509 261.158C108.055 249.699 101.238 244.41 86.4671 244.058C60.7892 243.352 35.1113 241.766 9.6606 240.532C6.25202 240.532 1.93458 241.589 0.343917 238.24C-1.24675 234.89 3.07063 233.48 5.34301 231.541C21.9314 217.614 38.0654 203.334 55.1083 189.76C67.1519 180.24 67.3791 172.13 55.1083 162.434C38.2926 149.212 22.6132 135.285 6.47928 121.711C3.75242 119.419 -1.24677 117.656 1.02561 113.954C3.298 110.428 8.29719 111.662 12.1602 111.486C37.1565 110.252 62.1527 108.489 87.149 107.96C101.692 107.784 107.6 102.495 108.055 92.0937C108.964 72.1727 110.1 52.2517 111.009 32.3307C111.009 29.6863 109.646 26.3367 113.736 24.9264C117.826 23.516 119.871 26.6893 122.371 28.4522C141.459 41.6741 160.774 54.896 179.408 68.4705C190.315 76.58 199.859 76.0511 210.539 68.4705C228.491 55.4249 246.443 42.7319 264.622 30.0389C267.576 27.9234 270.303 24.5738 275.075 26.1604C280.301 27.747 278.256 31.6255 278.484 34.6224C279.62 52.6042 281.438 70.7624 281.438 88.7442C281.438 101.966 287.119 108.136 305.298 108.313C329.839 108.313 354.154 110.604 378.468 111.838C381.877 111.838 386.195 111.133 388.24 113.954C390.967 117.832 385.967 119.595 383.24 121.887C366.425 136.343 349.609 150.623 332.794 165.255C328.93 168.605 324.158 171.954 324.386 177.067L325.295 176.89Z" fill="white"/>
<path d="M537.645 44.9721C560.732 37.5178 578.126 24.9849 590.882 8.19238C593.096 5.32537 593.412 0.0828296 597.313 0.000915368C601.74 -0.0809989 601.74 5.24347 603.954 8.11048C615.761 23.7562 631.891 35.7157 652.975 43.4976C654.345 43.9891 656.664 43.8253 656.875 45.3816C657.191 47.2657 654.872 47.5933 653.08 48.2486C629.044 56.9316 611.334 70.4475 600.475 89.2879C599.843 90.4347 599.316 91.8272 597.418 91.9911C595.731 92.073 595.31 90.8443 594.782 89.8613C583.608 70.3656 565.265 56.4401 540.28 47.6752C539.015 47.2657 537.961 46.5284 537.75 44.9721L537.645 44.9721Z" fill="white"/>
<path d="M862.589 586.633C862.589 611.14 862.589 635.646 862.589 660.153C862.589 668.655 862.16 677.324 848 676.991C835.127 676.824 834.483 668.322 834.483 660.486C834.483 615.308 834.698 570.296 834.483 525.117C833.84 458.099 786.853 405.585 706.183 382.079C689.877 377.411 672.713 374.41 654.905 374.243C633.021 374.243 610.922 373.743 589.038 374.077C578.74 374.077 569.729 371.909 569.3 363.574C568.656 353.905 578.955 352.071 589.467 352.071C608.133 352.071 626.799 352.404 645.25 351.904C726.994 349.737 784.708 319.062 819.25 261.88C829.334 245.209 834.269 227.038 834.483 208.366C834.912 169.022 834.698 129.512 834.698 90.1678C834.698 82.3324 834.698 74.3303 834.698 66.4949C834.698 58.4927 833.84 49.1569 848.429 49.1569C862.804 49.1569 862.589 57.826 862.589 66.1615C862.589 106.005 862.589 145.849 862.589 185.693C862.589 203.198 862.589 220.536 867.953 237.874C886.833 301.557 960.424 349.237 1044.96 351.571C1065.77 352.071 1086.58 351.904 1107.61 351.904C1117.9 351.904 1128.42 353.071 1127.99 363.074C1127.56 372.576 1117.9 373.91 1107.18 374.077C1073.49 374.577 1039.81 372.076 1006.12 378.578C926.954 393.749 865.808 450.931 863.233 514.114C862.16 538.12 863.233 562.293 863.233 586.3C863.233 586.3 863.233 586.3 863.018 586.3L862.589 586.633ZM728.71 361.24C729.139 364.574 731.285 365.908 733.859 366.741C784.708 384.58 822.039 412.92 844.782 452.598C845.854 454.598 846.713 457.099 850.145 456.932C854.222 456.765 855.08 453.931 856.367 451.431C878.466 413.087 914.51 385.58 963.428 367.908C966.86 366.575 971.581 365.908 971.152 362.074C970.722 358.906 966.002 359.239 963.213 358.239C920.089 342.402 887.477 318.062 863.448 286.22C859.157 280.385 859.157 269.549 849.931 269.716C841.993 269.716 841.349 280.552 836.843 286.387C811.097 320.563 775.482 346.069 728.496 361.24L728.71 361.24Z" fill="white"/>
<path d="M728.495 361.405C775.481 346.234 810.882 320.727 836.843 286.552C841.348 280.717 841.992 270.047 849.93 269.881C858.941 269.714 858.941 280.55 863.447 286.385C887.476 318.227 920.302 342.567 963.212 358.404C966.001 359.404 970.722 359.071 971.151 362.238C971.794 366.073 967.074 366.74 963.427 368.073C914.51 385.745 878.465 413.252 856.367 451.596C855.079 453.929 854.007 456.764 850.145 457.097C846.712 457.264 845.854 454.763 844.781 452.763C822.039 413.085 784.707 384.744 733.859 366.906C731.284 366.073 729.139 364.572 728.709 361.405L728.495 361.405Z" fill="white"/>
</svg>
