<svg width="44" height="44" viewBox="0 0 44 44" fill="none" xmlns="http://www.w3.org/2000/svg">
<path d="M11.3128 5.74047C9.12277 6.65047 7.47277 8.18047 6.26277 10.2305C6.05277 10.5805 6.02277 11.2205 5.65277 11.2305C5.23277 11.2405 5.23277 10.5905 5.02277 10.2405C3.90277 8.33047 2.37277 6.87047 0.372771 5.92047C0.242771 5.86047 0.0227686 5.88047 0.00276857 5.69047C-0.0272314 5.46047 0.192769 5.42048 0.362769 5.34048C2.64277 4.28048 4.32277 2.63047 5.35277 0.330473C5.41277 0.190473 5.46277 0.0204747 5.64277 0.000474721C5.80277 -0.00952528 5.84277 0.140473 5.89277 0.260473C6.95277 2.64047 8.69277 4.34047 11.0628 5.41047C11.1828 5.46047 11.2828 5.55047 11.3028 5.74047H11.3128Z" fill="white"/>
<path d="M29.3706 11.4205C29.3706 9.95053 29.3706 8.48053 29.3706 7.01053C29.3706 6.50053 29.3906 5.98053 30.0506 6.00053C30.6506 6.01053 30.6806 6.52053 30.6806 6.99053C30.6806 9.70053 30.6706 12.4005 30.6806 15.1105C30.7106 19.1305 32.9006 22.2805 36.6606 23.6905C37.4206 23.9705 38.2206 24.1505 39.0506 24.1605C40.0706 24.1605 41.1006 24.1905 42.1206 24.1705C42.6006 24.1705 43.0206 24.3005 43.0406 24.8005C43.0706 25.3805 42.5906 25.4905 42.1006 25.4905C41.2306 25.4905 40.3606 25.4705 39.5006 25.5005C35.6906 25.6305 33.0006 27.4705 31.3906 30.9005C30.9206 31.9005 30.6906 32.9905 30.6806 34.1105C30.6606 36.4705 30.6706 38.8405 30.6706 41.2005C30.6706 41.6705 30.6706 42.1505 30.6706 42.6205C30.6706 43.1005 30.7106 43.6605 30.0306 43.6605C29.3606 43.6605 29.3706 43.1405 29.3706 42.6405C29.3706 40.2505 29.3706 37.8605 29.3706 35.4705C29.3706 34.4205 29.3706 33.3805 29.1206 32.3405C28.2406 28.5205 24.8106 25.6605 20.8706 25.5205C19.9006 25.4905 18.9306 25.5005 17.9506 25.5005C17.4706 25.5005 16.9806 25.4305 17.0006 24.8305C17.0206 24.2605 17.4706 24.1805 17.9706 24.1705C19.5406 24.1405 21.1106 24.2905 22.6806 23.9005C26.3706 22.9905 29.2206 19.5605 29.3406 15.7705C29.3906 14.3305 29.3406 12.8805 29.3406 11.4405C29.3406 11.4405 29.3406 11.4405 29.3506 11.4405L29.3706 11.4205ZM35.6106 24.9405C35.5906 24.7405 35.4906 24.6605 35.3706 24.6105C33.0006 23.5405 31.2606 21.8405 30.2006 19.4605C30.1506 19.3405 30.1106 19.1905 29.9506 19.2005C29.7606 19.2105 29.7206 19.3805 29.6606 19.5305C28.6306 21.8305 26.9506 23.4805 24.6706 24.5405C24.5106 24.6205 24.2906 24.6605 24.3106 24.8905C24.3306 25.0805 24.5506 25.0605 24.6806 25.1205C26.6906 26.0705 28.2106 27.5305 29.3306 29.4405C29.5306 29.7905 29.5306 30.4405 29.9606 30.4305C30.3306 30.4305 30.3606 29.7805 30.5706 29.4305C31.7706 27.3805 33.4306 25.8505 35.6206 24.9405H35.6106Z" fill="white"/>
<path d="M35.6206 24.9307C33.4306 25.8407 31.7806 27.3707 30.5706 29.4207C30.3606 29.7707 30.3306 30.4107 29.9606 30.4207C29.5406 30.4307 29.5406 29.7807 29.3306 29.4307C28.2106 27.5207 26.6806 26.0607 24.6806 25.1107C24.5506 25.0507 24.3306 25.0707 24.3106 24.8807C24.2806 24.6507 24.5006 24.6107 24.6706 24.5307C26.9506 23.4707 28.6306 21.8207 29.6606 19.5207C29.7206 19.3807 29.7706 19.2107 29.9506 19.1907C30.1106 19.1807 30.1506 19.3307 30.2006 19.4507C31.2606 21.8307 33.0006 23.5307 35.3706 24.6007C35.4906 24.6507 35.5906 24.7407 35.6106 24.9307H35.6206Z" fill="white"/>
</svg>
