<svg width="1816" height="878" viewBox="0 0 1816 878" fill="none" xmlns="http://www.w3.org/2000/svg">
<path d="M316.857 413.725C289.956 413.593 269.005 395.516 269.005 372.534C269.005 349.243 290.474 331.255 317.943 331.476C344.585 331.697 365.64 350.171 365.484 373.065C365.278 395.737 343.602 413.902 316.857 413.725ZM317.322 399.273C334.704 399.273 349.913 386.589 350.12 371.783C350.327 356.845 334.704 343.63 317.012 343.762C299.475 343.895 285.093 356.447 284.938 371.695C284.835 386.589 299.682 399.273 317.322 399.273Z" fill="white"/>
<path d="M63.9952 735.511C63.9952 729.014 63.9952 722.517 63.9952 716.02C63.9952 713.766 64.0986 711.468 67.5129 711.556C70.6168 711.601 70.772 713.855 70.772 715.932C70.772 727.909 70.7203 739.842 70.772 751.819C70.9272 769.586 82.2565 783.508 101.708 789.74C105.639 790.977 109.778 791.773 114.071 791.817C119.348 791.817 124.676 791.95 129.953 791.861C132.436 791.861 134.609 792.436 134.712 794.646C134.868 797.209 132.384 797.695 129.85 797.695C125.349 797.695 120.848 797.607 116.399 797.739C96.6896 798.314 82.7738 806.446 74.445 821.605C72.0136 826.025 70.8238 830.842 70.772 835.792C70.6686 846.223 70.7203 856.697 70.7203 867.128C70.7203 869.205 70.7203 871.326 70.7203 873.404C70.7203 875.525 70.9272 878 67.4095 878C63.9434 878 63.9952 875.702 63.9952 873.492C63.9952 862.929 63.9952 852.366 63.9952 841.803C63.9952 837.163 63.9952 832.566 62.7019 827.97C58.1495 811.087 40.4055 798.446 20.0232 797.828C15.0053 797.695 9.98728 797.739 4.91757 797.739C2.43445 797.739 -0.1004 797.43 0.00306364 794.778C0.106527 792.259 2.43445 791.905 5.02104 791.861C13.1429 791.729 21.2648 792.392 29.3867 790.668C48.4757 786.646 63.2192 771.487 63.84 754.736C64.0986 748.372 63.84 741.964 63.84 735.599C63.84 735.599 63.84 735.599 63.8917 735.599L63.9952 735.511ZM96.2758 795.264C96.1723 794.38 95.655 794.027 95.0342 793.806C82.7738 789.077 73.7725 781.563 68.2889 771.045C68.0303 770.514 67.8233 769.851 66.9956 769.896C66.0127 769.94 65.8058 770.691 65.4954 771.354C60.167 781.519 51.4761 788.812 39.6813 793.496C38.8536 793.85 37.7155 794.027 37.8189 795.043C37.9224 795.883 39.0605 795.795 39.733 796.06C50.1311 800.259 57.9943 806.711 63.7882 815.153C64.8229 816.7 64.8229 819.572 67.0473 819.528C68.9614 819.528 69.1166 816.655 70.203 815.109C76.4108 806.048 84.9982 799.286 96.3275 795.264H96.2758Z" fill="white"/>
<path d="M96.3277 795.223C84.9985 799.244 76.4628 806.007 70.2032 815.067C69.1169 816.614 68.9617 819.442 67.0476 819.486C64.8749 819.531 64.8748 816.658 63.7885 815.111C57.9945 806.669 50.0796 800.217 39.7332 796.018C39.0607 795.753 37.9226 795.841 37.8192 795.002C37.664 793.985 38.8021 793.808 39.6815 793.455C51.4763 788.77 60.1673 781.478 65.4956 771.312C65.806 770.694 66.0647 769.942 66.9959 769.854C67.8236 769.81 68.0305 770.473 68.2892 771.003C73.7727 781.522 82.774 789.035 95.0344 793.764C95.6552 793.985 96.1725 794.383 96.276 795.223H96.3277Z" fill="white"/>
<path d="M1326.25 23.9569C1326.25 17.46 1326.25 10.9632 1326.25 4.46631C1326.25 2.2123 1326.35 -0.0859217 1329.77 0.002471C1332.87 0.0466674 1333.03 2.30069 1333.03 4.37792C1333.03 16.3551 1332.97 28.2881 1333.03 40.2654C1333.18 58.0323 1344.51 71.9542 1363.96 78.1859C1367.89 79.4234 1372.03 80.2189 1376.33 80.2631C1381.6 80.2631 1386.93 80.3957 1392.21 80.3073C1394.69 80.3073 1396.86 80.8818 1396.97 83.0917C1397.12 85.655 1394.64 86.1412 1392.1 86.1412C1387.6 86.1412 1383.1 86.0528 1378.65 86.1854C1358.94 86.7599 1345.03 94.8921 1336.7 110.051C1334.27 114.471 1333.08 119.288 1333.03 124.238C1332.92 134.669 1332.97 145.143 1332.97 155.574C1332.97 157.651 1332.97 159.772 1332.97 161.85C1332.97 163.971 1333.18 166.446 1329.66 166.446C1326.2 166.446 1326.25 164.148 1326.25 161.938C1326.25 151.375 1326.25 140.812 1326.25 130.249C1326.25 125.609 1326.25 121.012 1324.96 116.416C1320.4 99.5327 1302.66 86.8925 1282.28 86.2738C1277.26 86.1412 1272.24 86.1854 1267.17 86.1854C1264.69 86.1854 1262.15 85.876 1262.26 83.2242C1262.36 80.705 1264.69 80.3515 1267.27 80.3073C1275.4 80.1747 1283.52 80.8376 1291.64 79.114C1310.73 75.0921 1325.47 59.9327 1326.09 43.1823C1326.35 36.818 1326.09 30.4096 1326.09 24.0453C1326.09 24.0453 1326.09 24.0453 1326.15 24.0453L1326.25 23.9569ZM1358.53 83.7104C1358.43 82.8265 1357.91 82.4729 1357.29 82.2519C1345.03 77.5229 1336.03 70.0095 1330.54 59.4908C1330.28 58.9604 1330.08 58.2975 1329.25 58.3417C1328.27 58.3859 1328.06 59.1372 1327.75 59.8002C1322.42 69.9653 1313.73 77.2577 1301.94 81.9425C1301.11 82.2961 1299.97 82.4729 1300.07 83.4894C1300.18 84.3291 1301.31 84.2408 1301.99 84.5059C1312.38 88.7046 1320.25 95.1573 1326.04 103.599C1327.08 105.146 1327.08 108.018 1329.3 107.974C1331.22 107.974 1331.37 105.101 1332.46 103.555C1338.66 94.4943 1347.25 87.7323 1358.58 83.7104H1358.53Z" fill="white"/>
<path d="M1358.58 83.659C1347.25 87.6809 1338.72 94.4429 1332.46 103.503C1331.37 105.05 1331.22 107.879 1329.3 107.923C1327.13 107.967 1327.13 105.094 1326.04 103.547C1320.25 95.1059 1312.33 88.6532 1301.99 84.4545C1301.31 84.1894 1300.18 84.2778 1300.07 83.438C1299.92 82.4215 1301.06 82.2447 1301.94 81.8912C1313.73 77.2064 1322.42 69.9139 1327.75 59.7488C1328.06 59.13 1328.32 58.3787 1329.25 58.2903C1330.08 58.2461 1330.28 58.909 1330.54 59.4394C1336.03 69.9581 1345.03 77.4715 1357.29 82.2005C1357.91 82.4215 1358.43 82.8193 1358.53 83.659H1358.58Z" fill="white"/>
<path d="M1745.28 395.201C1745.28 388.704 1745.28 382.207 1745.28 375.71C1745.28 373.456 1745.38 371.158 1748.79 371.247C1751.9 371.291 1752.05 373.545 1752.05 375.622C1752.05 387.599 1752 399.532 1752.05 411.51C1752.21 429.276 1763.54 443.198 1782.99 449.43C1786.92 450.667 1791.06 451.463 1795.35 451.507C1800.63 451.507 1805.96 451.64 1811.23 451.551C1813.72 451.551 1815.89 452.126 1815.99 454.336C1816.15 456.899 1813.67 457.385 1811.13 457.385C1806.63 457.385 1802.13 457.297 1797.68 457.43C1777.97 458.004 1764.05 466.136 1755.73 481.296C1753.29 485.715 1752.1 490.533 1752.05 495.483C1751.95 505.913 1752 516.388 1752 526.818C1752 528.895 1752 531.016 1752 533.094C1752 535.215 1752.21 537.69 1748.69 537.69C1745.22 537.69 1745.28 535.392 1745.28 533.182C1745.28 522.619 1745.28 512.056 1745.28 501.493C1745.28 496.853 1745.28 492.256 1743.98 487.66C1739.43 470.777 1721.69 458.137 1701.3 457.518C1696.29 457.385 1691.27 457.43 1686.2 457.43C1683.72 457.43 1681.18 457.12 1681.28 454.468C1681.39 451.949 1683.72 451.596 1686.3 451.551C1694.42 451.419 1702.55 452.082 1710.67 450.358C1729.76 446.336 1744.5 431.177 1745.12 414.426C1745.38 408.062 1745.12 401.654 1745.12 395.289C1745.12 395.289 1745.12 395.289 1745.17 395.289L1745.28 395.201ZM1777.56 454.955C1777.45 454.071 1776.94 453.717 1776.31 453.496C1764.05 448.767 1755.05 441.254 1749.57 430.735C1749.31 430.205 1749.1 429.542 1748.28 429.586C1747.29 429.63 1747.09 430.381 1746.78 431.044C1741.45 441.209 1732.76 448.502 1720.96 453.187C1720.13 453.54 1719 453.717 1719.1 454.734C1719.2 455.573 1720.34 455.485 1721.01 455.75C1731.41 459.949 1739.28 466.401 1745.07 474.843C1746.1 476.39 1746.1 479.263 1748.33 479.218C1750.24 479.218 1750.4 476.346 1751.48 474.799C1757.69 465.738 1766.28 458.976 1777.61 454.955H1777.56Z" fill="white"/>
<path d="M1777.61 454.912C1766.28 458.934 1757.74 465.696 1751.48 474.756C1750.4 476.303 1750.24 479.131 1748.33 479.176C1746.16 479.22 1746.16 476.347 1745.07 474.8C1739.28 466.359 1731.36 459.906 1721.01 455.707C1720.34 455.442 1719.2 455.53 1719.1 454.691C1718.94 453.674 1720.08 453.497 1720.96 453.144C1732.76 448.459 1741.45 441.167 1746.78 431.001C1747.09 430.383 1747.35 429.631 1748.28 429.543C1749.1 429.499 1749.31 430.162 1749.57 430.692C1755.05 441.211 1764.05 448.724 1776.32 453.453C1776.94 453.674 1777.45 454.072 1777.56 454.912H1777.61Z" fill="white"/>
</svg>
