<svg width="387" height="158" viewBox="0 0 387 158" fill="none" xmlns="http://www.w3.org/2000/svg">
<path d="M351.973 101.664C351.924 100.862 351.411 100.364 350.97 99.838C349.159 97.569 347.349 95.3001 345.538 93.0588C345.293 92.7544 344.853 92.533 345.049 92.0073C345.245 91.5092 345.709 91.6753 346.076 91.6753C348.695 91.4816 351.337 91.2602 353.98 91.1772C355.815 91.1219 356.647 90.2641 356.622 88.1058C356.622 85.2834 356.794 82.4334 356.916 79.611C356.916 79.1406 356.72 78.5042 357.21 78.2275C357.821 77.8954 358.139 78.5319 358.506 78.8916C360.415 80.8562 362.323 82.7931 364.183 84.813C365.382 86.1412 366.459 86.1412 367.682 84.813C369.688 82.6547 371.768 80.5795 373.824 78.5042C374.044 78.2828 374.386 77.9508 374.606 78.0061C375.096 78.1168 374.974 78.6702 374.998 79.0853C375.096 82.212 375.243 85.3388 375.316 88.4378C375.365 90.2364 376.099 91.0665 377.69 91.1219C380.454 91.2325 383.219 91.4816 385.96 91.6753C386.327 91.6753 386.792 91.5092 386.963 92.035C387.134 92.5607 386.669 92.7821 386.425 93.0864C384.639 95.2724 382.901 97.5137 381.066 99.6443C379.769 101.138 379.745 102.411 381.066 103.933C382.877 106.008 384.565 108.194 386.302 110.325C386.596 110.685 387.134 110.961 386.89 111.543C386.645 112.096 386.107 111.902 385.691 111.93C382.999 112.124 380.308 112.4 377.616 112.483C376.05 112.511 375.414 113.341 375.365 114.974C375.267 118.1 375.145 121.227 375.047 124.354C375.047 124.769 375.194 125.295 374.753 125.516C374.313 125.737 374.093 125.239 373.824 124.963C371.768 122.887 369.688 120.812 367.682 118.681C366.507 117.409 365.48 117.492 364.33 118.681C362.397 120.729 360.464 122.721 358.506 124.714C358.188 125.046 357.895 125.571 357.381 125.322C356.818 125.073 357.038 124.465 357.014 123.994C356.891 121.172 356.696 118.322 356.696 115.499C356.696 113.424 356.084 112.456 354.127 112.428C351.484 112.428 348.866 112.068 346.248 111.875C345.881 111.875 345.416 111.985 345.196 111.543C344.902 110.934 345.44 110.657 345.734 110.297C347.545 108.028 349.355 105.787 351.166 103.49C351.582 102.965 352.096 102.439 352.071 101.637L351.973 101.664Z" fill="white"/>
<path d="M62.25 43.0791C57.05 43.0451 53 38.4126 53 32.5228C53 26.5538 57.15 21.9439 62.46 22.0005C67.61 22.0571 71.68 26.7916 71.65 32.6587C71.61 38.4692 67.42 43.1244 62.25 43.0791ZM62.34 39.3753C65.7 39.3753 68.64 36.1246 68.68 32.3303C68.72 28.5019 65.7 25.1153 62.28 25.1493C58.89 25.1833 56.11 28.4 56.08 32.3076C56.06 36.1246 58.93 39.3753 62.34 39.3753Z" fill="white"/>
<path d="M90.3128 65.5019C88.1228 66.5326 86.4728 68.2656 85.2628 70.5875C85.0528 70.984 85.0228 71.7088 84.6528 71.7202C84.2328 71.7315 84.2328 70.9953 84.0228 70.5988C82.9028 68.4355 81.3728 66.7818 79.3728 65.7058C79.2428 65.6379 79.0228 65.6605 79.0028 65.4453C78.9728 65.1848 79.1928 65.1395 79.3628 65.0489C81.6428 63.8483 83.3228 61.9794 84.3528 59.3743C84.4128 59.2157 84.4628 59.0232 84.6428 59.0005C84.8028 58.9892 84.8428 59.1591 84.8928 59.295C85.9528 61.9907 87.6928 63.9162 90.0628 65.1282C90.1828 65.1848 90.2828 65.2867 90.3028 65.5019H90.3128Z" fill="white"/>
<path d="M136.313 6.50193C134.123 7.53264 132.473 9.2656 131.263 11.5875C131.053 11.984 131.023 12.7088 130.653 12.7202C130.233 12.7315 130.233 11.9953 130.023 11.5988C128.903 9.43549 127.373 7.78183 125.373 6.70581C125.243 6.63785 125.023 6.66051 125.003 6.4453C124.973 6.18479 125.193 6.13949 125.363 6.04888C127.643 4.84827 129.323 2.9794 130.353 0.374309C130.413 0.215739 130.463 0.0231906 130.643 0.000537692C130.803 -0.0107888 130.843 0.159106 130.893 0.295024C131.953 2.99073 133.693 4.91623 136.063 6.12816C136.183 6.18479 136.283 6.28673 136.303 6.50193H136.313Z" fill="white"/>
<path d="M275.371 28.1396C275.371 26.4746 275.371 24.8096 275.371 23.1446C275.371 22.567 275.391 21.978 276.051 22.0006C276.651 22.012 276.681 22.5896 276.681 23.122C276.681 26.1914 276.671 29.2496 276.681 32.3191C276.711 36.8723 278.901 40.4401 282.661 42.0372C283.421 42.3543 284.221 42.5582 285.051 42.5695C286.071 42.5695 287.101 42.6035 288.121 42.5808C288.601 42.5808 289.021 42.7281 289.041 43.2944C289.071 43.9514 288.591 44.0759 288.101 44.0759C287.231 44.0759 286.361 44.0533 285.501 44.0873C281.691 44.2345 279.001 46.3186 277.391 50.2036C276.921 51.3362 276.691 52.5708 276.681 53.8394C276.661 56.5124 276.671 59.1968 276.671 61.8698C276.671 62.4022 276.671 62.9459 276.671 63.4782C276.671 64.0219 276.711 64.6562 276.031 64.6562C275.361 64.6562 275.371 64.0672 275.371 63.5009C275.371 60.7938 275.371 58.0868 275.371 55.3798C275.371 54.1905 275.371 53.0125 275.121 51.8346C274.241 47.5079 270.811 44.2685 266.871 44.1099C265.901 44.0759 264.931 44.0873 263.951 44.0873C263.471 44.0873 262.981 44.008 263.001 43.3284C263.021 42.6828 263.471 42.5922 263.971 42.5808C265.541 42.5469 267.111 42.7168 268.681 42.275C272.371 41.2443 275.221 37.3593 275.341 33.0666C275.391 31.4356 275.341 29.7933 275.341 28.1622C275.341 28.1622 275.341 28.1622 275.351 28.1622L275.371 28.1396ZM281.611 43.453C281.591 43.2265 281.491 43.1358 281.371 43.0792C279.001 41.8673 277.261 39.9418 276.201 37.2461C276.151 37.1102 276.111 36.9403 275.951 36.9516C275.761 36.9629 275.721 37.1555 275.661 37.3254C274.631 39.9305 272.951 41.7993 270.671 42.9999C270.511 43.0905 270.291 43.1358 270.311 43.3964C270.331 43.6116 270.551 43.5889 270.681 43.6569C272.691 44.7329 274.211 46.3865 275.331 48.5499C275.531 48.9463 275.531 49.6825 275.961 49.6712C276.331 49.6712 276.361 48.935 276.571 48.5386C277.771 46.2166 279.431 44.4837 281.621 43.453H281.611Z" fill="white"/>
<path d="M281.621 43.4418C279.431 44.4725 277.781 46.2054 276.571 48.5273C276.361 48.9238 276.331 49.6487 275.961 49.66C275.541 49.6713 275.541 48.9351 275.331 48.5387C274.211 46.3753 272.681 44.7216 270.681 43.6456C270.551 43.5777 270.331 43.6003 270.311 43.3851C270.281 43.1246 270.501 43.0793 270.671 42.9887C272.951 41.7881 274.631 39.9192 275.661 37.3141C275.721 37.1556 275.771 36.963 275.951 36.9404C276.111 36.929 276.151 37.0989 276.201 37.2348C277.261 39.9305 279.001 41.856 281.371 43.068C281.491 43.1246 281.591 43.2266 281.611 43.4418H281.621Z" fill="white"/>
<path d="M25.1764 83.4952C25.1764 80.1066 25.1764 76.718 25.1764 73.3295C25.1764 72.1539 25.2171 70.9552 26.5603 71.0013C27.7814 71.0243 27.8425 72.2 27.8425 73.2834C27.8425 79.5303 27.8221 85.7542 27.8425 92.0011C27.9035 101.268 32.3606 108.529 40.0128 111.779C41.5596 112.425 43.1877 112.84 44.8769 112.863C46.9528 112.863 49.049 112.932 51.1249 112.886C52.1018 112.886 52.9566 113.185 52.9973 114.338C53.0583 115.675 52.0814 115.929 51.0842 115.929C49.3136 115.929 47.543 115.882 45.7927 115.952C38.0387 116.251 32.5641 120.493 29.2874 128.399C28.3309 130.704 27.8628 133.217 27.8425 135.799C27.8018 141.239 27.8221 146.702 27.8221 152.142C27.8221 153.226 27.8221 154.332 27.8221 155.416C27.8221 156.522 27.9035 157.813 26.5196 157.813C25.156 157.813 25.1764 156.614 25.1764 155.462C25.1764 149.952 25.1764 144.443 25.1764 138.934C25.1764 136.513 25.1764 134.116 24.6676 131.719C22.8766 122.913 15.896 116.32 7.87735 115.998C5.90322 115.929 3.9291 115.952 1.93462 115.952C0.957737 115.952 -0.0394983 115.79 0.00120527 114.407C0.0419089 113.093 0.957738 112.909 1.97533 112.886C5.17056 112.817 8.36579 113.162 11.561 112.263C19.0708 110.166 24.8711 102.259 25.1153 93.5225C25.2171 90.2031 25.1153 86.8607 25.1153 83.5413C25.1153 83.5413 25.1153 83.5413 25.1357 83.5413L25.1764 83.4952ZM37.8759 114.661C37.8352 114.2 37.6317 114.015 37.3874 113.9C32.5641 111.433 29.0229 107.515 26.8656 102.029C26.7638 101.752 26.6824 101.406 26.3568 101.429C25.9701 101.452 25.8887 101.844 25.7666 102.19C23.6703 107.492 20.2512 111.295 15.611 113.739C15.2854 113.923 14.8377 114.015 14.8784 114.545C14.9191 114.983 15.3668 114.937 15.6314 115.076C19.7221 117.265 22.8156 120.631 25.095 125.034C25.502 125.841 25.502 127.339 26.3771 127.316C27.1301 127.316 27.1912 125.818 27.6186 125.011C30.0608 120.285 33.4392 116.758 37.8962 114.661H37.8759Z" fill="white"/>
<path d="M37.8963 114.638C33.4393 116.736 30.0812 120.262 27.6187 124.988C27.1913 125.795 27.1302 127.27 26.3772 127.293C25.5224 127.316 25.5224 125.818 25.095 125.011C22.8156 120.608 19.7018 117.243 15.6315 115.053C15.3669 114.914 14.9191 114.961 14.8784 114.523C14.8174 113.992 15.2651 113.9 15.6111 113.716C20.2513 111.272 23.6704 107.469 25.7667 102.167C25.8888 101.844 25.9905 101.452 26.3569 101.406C26.6825 101.383 26.7639 101.729 26.8657 102.006C29.0229 107.492 32.5642 111.411 37.3875 113.877C37.6317 113.992 37.8353 114.2 37.876 114.638H37.8963Z" fill="white"/>
</svg>
