<svg width="170" height="142" viewBox="0 0 170 142" fill="none" xmlns="http://www.w3.org/2000/svg">
<path d="M117.96 20.4258C117.96 14.889 117.997 9.35222 117.96 3.81541C117.96 1.90869 118.034 -0.0713586 120.554 0.00197662C122.815 0.0386442 122.926 1.94536 122.926 3.74207C122.926 13.9357 122.889 24.1293 122.963 34.2862C123.074 49.4299 131.413 61.2736 145.719 66.5537C148.61 67.6171 151.649 68.3138 154.8 68.3138C158.691 68.3138 162.583 68.4238 166.511 68.3504C168.327 68.3138 169.921 68.8638 169.995 70.7338C170.106 72.9339 168.29 73.3372 166.437 73.3372C163.139 73.3372 159.84 73.2639 156.542 73.3739C142.05 73.8872 131.821 80.8174 125.706 93.6878C123.927 97.4645 123.037 101.571 123 105.751C122.926 114.662 122.963 123.535 122.963 132.445C122.963 134.242 122.963 136.002 122.963 137.799C122.963 139.596 123.112 141.686 120.517 141.722C117.96 141.722 117.997 139.742 117.997 137.872C118.034 128.889 118.034 119.868 117.997 110.885C117.997 106.925 117.997 103.038 117.07 99.1146C113.698 84.7409 100.689 73.9606 85.7158 73.4472C82.0096 73.3006 78.3034 73.3739 74.6342 73.3739C72.8182 73.3739 70.928 73.1172 71.0021 70.8438C71.0762 68.7171 72.8182 68.3871 74.7083 68.3504C80.6753 68.2404 86.6794 68.7905 92.6094 67.3237C106.619 63.877 117.478 51.0066 117.96 36.7063C118.145 31.2795 117.997 25.816 117.997 20.3892C117.923 20.4258 117.923 20.4258 117.96 20.4258ZM141.717 71.3205C141.643 70.5872 141.272 70.2572 140.79 70.0738C131.784 66.0404 125.15 59.6602 121.11 50.6766C120.925 50.2366 120.777 49.6499 120.147 49.7233C119.442 49.7599 119.294 50.42 119.035 50.9333C115.143 59.6235 108.694 65.7837 100.059 69.7805C99.4288 70.0738 98.6134 70.2571 98.6875 71.1005C98.7617 71.7972 99.577 71.7239 100.096 71.9805C107.731 75.5373 113.549 81.0374 117.812 88.2243C118.59 89.5443 118.59 92.0011 120.184 91.9644C121.592 91.9277 121.703 89.5077 122.481 88.1876C127.077 80.4874 133.378 74.7306 141.717 71.3205Z" fill="white"/>
<path d="M141.717 71.3197C133.415 74.7298 127.077 80.4866 122.519 88.1868C121.74 89.5068 121.592 91.9269 120.221 91.9635C118.627 92.0002 118.627 89.5435 117.849 88.2234C113.587 81.0366 107.768 75.5365 100.133 71.9797C99.6142 71.723 98.7988 71.7964 98.7247 71.0997C98.6135 70.2563 99.4659 70.073 100.096 69.7796C108.769 65.7829 115.18 59.586 119.072 50.9325C119.331 50.3825 119.48 49.7591 120.184 49.7224C120.814 49.6858 120.925 50.2358 121.147 50.6758C125.187 59.6594 131.821 66.0395 140.827 70.073C141.235 70.2563 141.643 70.5497 141.717 71.3197Z" fill="white"/>
<path d="M0 49.7732C11.5777 44.2744 19.9181 36.5653 24.9114 25.7294C26.3929 25.5677 26.6124 26.6998 27.0513 27.5085C31.7154 36.5114 38.5193 43.3579 47.6828 47.9402C48.5607 48.3715 49.8227 48.6411 49.9873 49.7192C50.152 51.067 48.6704 50.9592 47.8474 51.3365C39.0132 55.865 32.3738 62.5497 27.5452 71.0136C26.9416 72.0918 26.777 73.8169 25.2406 73.709C23.8688 73.6012 24.1432 71.93 23.5945 70.9597C18.3269 61.6333 10.7547 54.7328 0 49.7732Z" fill="white"/>
<path d="M59 23.2423C64.5573 20.6074 68.5607 16.9135 70.9575 11.7213C71.6686 11.6438 71.7739 12.1863 71.9846 12.5738C74.2234 16.8877 77.4893 20.1683 81.8877 22.364C82.3091 22.5707 82.9149 22.6998 82.9939 23.2164C83.0729 23.8622 82.3618 23.8106 81.9667 23.9914C77.7263 26.1613 74.5394 29.3644 72.2217 33.42C71.932 33.9366 71.853 34.7632 71.1155 34.7116C70.457 34.6599 70.5887 33.8591 70.3253 33.3941C67.7969 28.9253 64.1623 25.6188 59 23.2423Z" fill="white"/>
</svg>
