<svg width="337" height="102" viewBox="0 0 337 102" fill="none" xmlns="http://www.w3.org/2000/svg">
<path d="M27.8848 34.8105C28.3682 35.2939 28.6099 35.8758 28.6099 36.5562C28.6099 37.2365 28.3682 37.8094 27.8848 38.2749C27.4014 38.7583 26.8195 39 26.1392 39H3.0166C2.33626 39 1.76335 38.7583 1.29785 38.2749C0.814453 37.8094 0.572754 37.2365 0.572754 36.5562C0.572754 35.8758 0.814453 35.2939 1.29785 34.8105C1.76335 34.3271 2.33626 34.0854 3.0166 34.0854H26.1392C26.8195 34.0854 27.4014 34.3271 27.8848 34.8105ZM3.0166 0.462402H26.1392C26.8195 0.462402 27.4014 0.704102 27.8848 1.1875C28.3682 1.6709 28.6099 2.24382 28.6099 2.90625C28.6099 3.58659 28.3682 4.16846 27.8848 4.65186C27.4014 5.13525 26.8195 5.37695 26.1392 5.37695H3.0166C2.33626 5.37695 1.76335 5.13525 1.29785 4.65186C0.814453 4.16846 0.572754 3.58659 0.572754 2.90625C0.572754 2.24382 0.814453 1.6709 1.29785 1.1875C1.76335 0.704102 2.33626 0.462402 3.0166 0.462402ZM3.0166 17.2739H26.1392C26.8195 17.2739 27.4014 17.5156 27.8848 17.999C28.3682 18.4824 28.6099 19.0643 28.6099 19.7446C28.6099 20.4071 28.3682 20.98 27.8848 21.4634C27.4014 21.9468 26.8195 22.1885 26.1392 22.1885H3.0166C2.33626 22.1885 1.76335 21.9468 1.29785 21.4634C0.814453 20.98 0.572754 20.4071 0.572754 19.7446C0.572754 19.0643 0.814453 18.4824 1.29785 17.999C1.76335 17.5156 2.33626 17.2739 3.0166 17.2739ZM38.1704 38.2749C37.687 38.7583 37.1051 39 36.4248 39C35.7445 39 35.1715 38.7583 34.7061 38.2749C34.2227 37.8094 33.981 37.2365 33.981 36.5562V2.90625C33.981 1.74251 34.536 0.972656 35.646 0.59668C36.756 0.220703 37.6691 0.49821 38.3853 1.4292L59.8965 29.3589V2.90625C59.8965 2.24382 60.1382 1.6709 60.6216 1.1875C61.105 0.704102 61.6868 0.462402 62.3672 0.462402C63.0296 0.462402 63.6025 0.704102 64.0859 1.1875C64.5693 1.6709 64.811 2.24382 64.811 2.90625V36.5562C64.811 37.7199 64.256 38.4897 63.146 38.8657C62.8953 38.9552 62.6357 39 62.3672 39C61.5615 39 60.908 38.6777 60.4067 38.0332L38.8955 10.1035V36.5562C38.8955 37.2365 38.6538 37.8094 38.1704 38.2749ZM89.4375 39C84.1201 39 79.5815 37.1201 75.8218 33.3604C72.062 29.6006 70.1821 25.062 70.1821 19.7446C70.1821 14.4093 72.062 9.86182 75.8218 6.10205C79.5815 2.34229 84.1201 0.462402 89.4375 0.462402C94.7728 0.462402 99.3203 2.34229 103.08 6.10205C103.546 6.58545 103.778 7.16732 103.778 7.84766C103.778 8.52799 103.546 9.10091 103.08 9.56641C102.597 10.0498 102.015 10.2915 101.334 10.2915C100.654 10.2915 100.081 10.0498 99.6157 9.56641C96.8049 6.77344 93.4121 5.37695 89.4375 5.37695C85.4808 5.37695 82.097 6.77344 79.2861 9.56641C76.4932 12.3773 75.0967 15.77 75.0967 19.7446C75.0967 23.7013 76.4932 27.0851 79.2861 29.896C81.9717 32.5636 85.2033 33.9601 88.981 34.0854C92.7586 34.2108 96.0618 33.0381 98.8906 30.5674V22.1885H88.7393C88.0768 22.1885 87.5039 21.9468 87.0205 21.4634C86.5371 20.98 86.2954 20.4071 86.2954 19.7446C86.2954 19.0643 86.5371 18.4824 87.0205 17.999C87.5039 17.5156 88.0768 17.2739 88.7393 17.2739H101.334C102.015 17.2739 102.597 17.5156 103.08 17.999C103.546 18.4824 103.778 19.0643 103.778 19.7446V31.6147C103.778 32.2951 103.546 32.877 103.08 33.3604C99.3203 37.1201 94.7728 39 89.4375 39ZM113.366 38.2749C112.882 38.7583 112.3 39 111.62 39C110.94 39 110.367 38.7583 109.901 38.2749C109.418 37.8094 109.176 37.2365 109.176 36.5562V2.90625C109.176 2.24382 109.418 1.6709 109.901 1.1875C110.367 0.704102 110.94 0.462402 111.62 0.462402C112.3 0.462402 112.882 0.704102 113.366 1.1875C113.849 1.6709 114.091 2.24382 114.091 2.90625V36.5562C114.091 37.2365 113.849 37.8094 113.366 38.2749ZM123.678 38.2749C123.195 38.7583 122.613 39 121.933 39C121.252 39 120.679 38.7583 120.214 38.2749C119.73 37.8094 119.489 37.2365 119.489 36.5562V2.90625C119.489 1.74251 120.044 0.972656 121.154 0.59668C122.264 0.220703 123.177 0.49821 123.893 1.4292L145.404 29.3589V2.90625C145.404 2.24382 145.646 1.6709 146.129 1.1875C146.613 0.704102 147.195 0.462402 147.875 0.462402C148.537 0.462402 149.11 0.704102 149.594 1.1875C150.077 1.6709 150.319 2.24382 150.319 2.90625V36.5562C150.319 37.7199 149.764 38.4897 148.654 38.8657C148.403 38.9552 148.144 39 147.875 39C147.069 39 146.416 38.6777 145.915 38.0332L124.403 10.1035V36.5562C124.403 37.2365 124.162 37.8094 123.678 38.2749ZM181.256 39H158.134C157.453 39 156.881 38.7583 156.415 38.2749C155.932 37.8094 155.69 37.2365 155.69 36.5562V2.90625C155.69 2.24382 155.932 1.6709 156.415 1.1875C156.881 0.704102 157.453 0.462402 158.134 0.462402H181.256C181.937 0.462402 182.519 0.704102 183.002 1.1875C183.485 1.6709 183.727 2.24382 183.727 2.90625C183.727 3.58659 183.485 4.16846 183.002 4.65186C182.519 5.13525 181.937 5.37695 181.256 5.37695H160.604V17.2739H175.67C176.333 17.2739 176.906 17.5156 177.389 17.999C177.873 18.4824 178.114 19.0643 178.114 19.7446C178.114 20.4071 177.873 20.98 177.389 21.4634C176.906 21.9468 176.333 22.1885 175.67 22.1885H160.604V34.0854H181.256C181.937 34.0854 182.519 34.3271 183.002 34.8105C183.485 35.2939 183.727 35.8758 183.727 36.5562C183.727 37.2365 183.485 37.8094 183.002 38.2749C182.519 38.7583 181.937 39 181.256 39ZM214.665 39H191.542C190.862 39 190.289 38.7583 189.823 38.2749C189.34 37.8094 189.098 37.2365 189.098 36.5562V2.90625C189.098 2.24382 189.34 1.6709 189.823 1.1875C190.289 0.704102 190.862 0.462402 191.542 0.462402H214.665C215.345 0.462402 215.927 0.704102 216.41 1.1875C216.894 1.6709 217.135 2.24382 217.135 2.90625C217.135 3.58659 216.894 4.16846 216.41 4.65186C215.927 5.13525 215.345 5.37695 214.665 5.37695H194.013V17.2739H209.079C209.741 17.2739 210.314 17.5156 210.797 17.999C211.281 18.4824 211.522 19.0643 211.522 19.7446C211.522 20.4071 211.281 20.98 210.797 21.4634C210.314 21.9468 209.741 22.1885 209.079 22.1885H194.013V34.0854H214.665C215.345 34.0854 215.927 34.3271 216.41 34.8105C216.894 35.2939 217.135 35.8758 217.135 36.5562C217.135 37.2365 216.894 37.8094 216.41 38.2749C215.927 38.7583 215.345 39 214.665 39ZM226.696 38.2749C226.212 38.7583 225.631 39 224.95 39C224.27 39 223.697 38.7583 223.231 38.2749C222.748 37.8094 222.506 37.2365 222.506 36.5562V23.1553C222.506 22.4749 222.748 21.8931 223.231 21.4097C223.697 20.9263 224.27 20.6846 224.95 20.6846H237.895C240.007 20.6846 241.815 19.9416 243.319 18.4556C244.805 16.9517 245.548 15.1434 245.548 13.0308C245.548 10.9181 244.805 9.10986 243.319 7.60596C241.815 6.11995 240.007 5.37695 237.895 5.37695H224.95C224.27 5.37695 223.697 5.13525 223.231 4.65186C222.748 4.16846 222.506 3.58659 222.506 2.90625C222.506 2.24382 222.748 1.6709 223.231 1.1875C223.697 0.704102 224.27 0.462402 224.95 0.462402H237.895C241.368 0.462402 244.331 1.6888 246.784 4.1416C249.236 6.6123 250.463 9.57536 250.463 13.0308C250.463 15.8953 249.586 18.4556 247.831 20.7114C246.112 22.9315 243.91 24.4085 241.225 25.1426L250.194 34.8911C250.66 35.3924 250.884 35.9743 250.866 36.6367C250.83 37.3171 250.561 37.89 250.06 38.3555C249.595 38.7852 249.04 39 248.395 39C247.679 39 247.079 38.7404 246.596 38.2212L234.967 25.5991H227.421V36.5562C227.421 37.2365 227.179 37.8094 226.696 38.2749ZM260.48 38.2749C259.997 38.7583 259.415 39 258.734 39C258.054 39 257.481 38.7583 257.016 38.2749C256.532 37.8094 256.291 37.2365 256.291 36.5562V2.90625C256.291 2.24382 256.532 1.6709 257.016 1.1875C257.481 0.704102 258.054 0.462402 258.734 0.462402C259.415 0.462402 259.997 0.704102 260.48 1.1875C260.963 1.6709 261.205 2.24382 261.205 2.90625V36.5562C261.205 37.2365 260.963 37.8094 260.48 38.2749ZM270.792 38.2749C270.309 38.7583 269.727 39 269.047 39C268.367 39 267.794 38.7583 267.328 38.2749C266.845 37.8094 266.603 37.2365 266.603 36.5562V2.90625C266.603 1.74251 267.158 0.972656 268.268 0.59668C269.378 0.220703 270.291 0.49821 271.007 1.4292L292.519 29.3589V2.90625C292.519 2.24382 292.76 1.6709 293.244 1.1875C293.727 0.704102 294.309 0.462402 294.989 0.462402C295.652 0.462402 296.225 0.704102 296.708 1.1875C297.191 1.6709 297.433 2.24382 297.433 2.90625V36.5562C297.433 37.7199 296.878 38.4897 295.768 38.8657C295.517 38.9552 295.258 39 294.989 39C294.184 39 293.53 38.6777 293.029 38.0332L271.518 10.1035V36.5562C271.518 37.2365 271.276 37.8094 270.792 38.2749ZM322.06 39C316.742 39 312.204 37.1201 308.444 33.3604C304.684 29.6006 302.804 25.062 302.804 19.7446C302.804 14.4093 304.684 9.86182 308.444 6.10205C312.204 2.34229 316.742 0.462402 322.06 0.462402C327.395 0.462402 331.942 2.34229 335.702 6.10205C336.168 6.58545 336.4 7.16732 336.4 7.84766C336.4 8.52799 336.168 9.10091 335.702 9.56641C335.219 10.0498 334.637 10.2915 333.957 10.2915C333.276 10.2915 332.703 10.0498 332.238 9.56641C329.427 6.77344 326.034 5.37695 322.06 5.37695C318.103 5.37695 314.719 6.77344 311.908 9.56641C309.115 12.3773 307.719 15.77 307.719 19.7446C307.719 23.7013 309.115 27.0851 311.908 29.896C314.594 32.5636 317.825 33.9601 321.603 34.0854C325.381 34.2108 328.684 33.0381 331.513 30.5674V22.1885H321.361C320.699 22.1885 320.126 21.9468 319.643 21.4634C319.159 20.98 318.917 20.4071 318.917 19.7446C318.917 19.0643 319.159 18.4824 319.643 17.999C320.126 17.5156 320.699 17.2739 321.361 17.2739H333.957C334.637 17.2739 335.219 17.5156 335.702 17.999C336.168 18.4824 336.4 19.0643 336.4 19.7446V31.6147C336.4 32.2951 336.168 32.877 335.702 33.3604C331.942 37.1201 327.395 39 322.06 39ZM21.9229 68.377H11.3955C10.7152 68.377 10.1423 68.1353 9.67676 67.6519C9.19336 67.1685 8.95166 66.5866 8.95166 65.9062C8.95166 65.2438 9.19336 64.6709 9.67676 64.1875C10.1423 63.7041 10.7152 63.4624 11.3955 63.4624H37.3379C38.0003 63.4624 38.5732 63.7041 39.0566 64.1875C39.54 64.6709 39.7817 65.2438 39.7817 65.9062C39.7817 66.5866 39.54 67.1685 39.0566 67.6519C38.5732 68.1353 38.0003 68.377 37.3379 68.377H26.8105V99.5562C26.8105 100.236 26.5778 100.809 26.1123 101.275C25.6289 101.758 25.047 102 24.3667 102C23.6864 102 23.1045 101.758 22.6211 101.275C22.1556 100.809 21.9229 100.236 21.9229 99.5562V68.377ZM49.3423 101.275C48.8589 101.758 48.277 102 47.5967 102C46.9163 102 46.3434 101.758 45.8779 101.275C45.3945 100.809 45.1528 100.236 45.1528 99.5562V65.9062C45.1528 65.2438 45.3945 64.6709 45.8779 64.1875C46.3434 63.7041 46.9163 63.4624 47.5967 63.4624C48.277 63.4624 48.8589 63.7041 49.3423 64.1875C49.8257 64.6709 50.0674 65.2438 50.0674 65.9062V80.2739H69.6719V65.9062C69.6719 65.2438 69.9136 64.6709 70.397 64.1875C70.8804 63.7041 71.4533 63.4624 72.1157 63.4624C72.7961 63.4624 73.3779 63.7041 73.8613 64.1875C74.3447 64.6709 74.5864 65.2438 74.5864 65.9062V99.5562C74.5864 100.236 74.3447 100.809 73.8613 101.275C73.3779 101.758 72.7961 102 72.1157 102C71.4533 102 70.8804 101.758 70.397 101.275C69.9136 100.809 69.6719 100.236 69.6719 99.5562V85.1885H50.0674V99.5562C50.0674 100.236 49.8257 100.809 49.3423 101.275ZM105.524 102H82.4014C81.721 102 81.1481 101.758 80.6826 101.275C80.1992 100.809 79.9575 100.236 79.9575 99.5562V65.9062C79.9575 65.2438 80.1992 64.6709 80.6826 64.1875C81.1481 63.7041 81.721 63.4624 82.4014 63.4624H105.524C106.204 63.4624 106.786 63.7041 107.27 64.1875C107.753 64.6709 107.995 65.2438 107.995 65.9062C107.995 66.5866 107.753 67.1685 107.27 67.6519C106.786 68.1353 106.204 68.377 105.524 68.377H84.8721V80.2739H99.938C100.6 80.2739 101.173 80.5156 101.657 80.999C102.14 81.4824 102.382 82.0643 102.382 82.7446C102.382 83.4071 102.14 83.98 101.657 84.4634C101.173 84.9468 100.6 85.1885 99.938 85.1885H84.8721V97.0854H105.524C106.204 97.0854 106.786 97.3271 107.27 97.8105C107.753 98.2939 107.995 98.8758 107.995 99.5562C107.995 100.236 107.753 100.809 107.27 101.275C106.786 101.758 106.204 102 105.524 102ZM131.198 101.275C130.714 101.758 130.132 102 129.452 102C128.772 102 128.199 101.758 127.733 101.275C127.25 100.809 127.008 100.236 127.008 99.5562V65.9062C127.008 65.2438 127.25 64.6709 127.733 64.1875C128.199 63.7041 128.772 63.4624 129.452 63.4624H152.575C153.255 63.4624 153.837 63.7041 154.32 64.1875C154.804 64.6709 155.045 65.2438 155.045 65.9062C155.045 66.5866 154.804 67.1685 154.32 67.6519C153.837 68.1353 153.255 68.377 152.575 68.377H131.923V80.2739H146.989C147.651 80.2739 148.224 80.5156 148.708 80.999C149.191 81.4824 149.433 82.0643 149.433 82.7446C149.433 83.4071 149.191 83.98 148.708 84.4634C148.224 84.9468 147.651 85.1885 146.989 85.1885H131.923V99.5562C131.923 100.236 131.681 100.809 131.198 101.275ZM185.526 97.6763C182.644 100.559 179.18 102 175.133 102C171.069 102 167.605 100.559 164.74 97.6763C161.858 94.8117 160.417 91.3473 160.417 87.2832V65.9062C160.417 65.2438 160.658 64.6709 161.142 64.1875C161.607 63.7041 162.18 63.4624 162.86 63.4624C163.541 63.4624 164.123 63.7041 164.606 64.1875C165.089 64.6709 165.331 65.2438 165.331 65.9062V87.2832C165.331 89.9867 166.289 92.2962 168.205 94.2119C170.12 96.1276 172.43 97.0854 175.133 97.0854C177.837 97.0854 180.146 96.1276 182.062 94.2119C183.978 92.2962 184.936 89.9867 184.936 87.2832V65.9062C184.936 65.2438 185.177 64.6709 185.661 64.1875C186.144 63.7041 186.717 63.4624 187.379 63.4624C188.06 63.4624 188.642 63.7041 189.125 64.1875C189.608 64.6709 189.85 65.2438 189.85 65.9062V87.2832C189.85 91.3473 188.409 94.8117 185.526 97.6763ZM208.192 68.377H197.665C196.985 68.377 196.412 68.1353 195.946 67.6519C195.463 67.1685 195.221 66.5866 195.221 65.9062C195.221 65.2438 195.463 64.6709 195.946 64.1875C196.412 63.7041 196.985 63.4624 197.665 63.4624H223.607C224.27 63.4624 224.843 63.7041 225.326 64.1875C225.81 64.6709 226.051 65.2438 226.051 65.9062C226.051 66.5866 225.81 67.1685 225.326 67.6519C224.843 68.1353 224.27 68.377 223.607 68.377H213.08V99.5562C213.08 100.236 212.847 100.809 212.382 101.275C211.898 101.758 211.317 102 210.636 102C209.956 102 209.374 101.758 208.891 101.275C208.425 100.809 208.192 100.236 208.192 99.5562V68.377ZM256.532 97.6763C253.65 100.559 250.185 102 246.139 102C242.075 102 238.611 100.559 235.746 97.6763C232.864 94.8117 231.422 91.3473 231.422 87.2832V65.9062C231.422 65.2438 231.664 64.6709 232.147 64.1875C232.613 63.7041 233.186 63.4624 233.866 63.4624C234.547 63.4624 235.128 63.7041 235.612 64.1875C236.095 64.6709 236.337 65.2438 236.337 65.9062V87.2832C236.337 89.9867 237.295 92.2962 239.21 94.2119C241.126 96.1276 243.436 97.0854 246.139 97.0854C248.843 97.0854 251.152 96.1276 253.068 94.2119C254.984 92.2962 255.941 89.9867 255.941 87.2832V65.9062C255.941 65.2438 256.183 64.6709 256.667 64.1875C257.15 63.7041 257.723 63.4624 258.385 63.4624C259.066 63.4624 259.647 63.7041 260.131 64.1875C260.614 64.6709 260.856 65.2438 260.856 65.9062V87.2832C260.856 91.3473 259.415 94.8117 256.532 97.6763ZM287.04 81.4556C288.526 79.9517 289.269 78.1434 289.269 76.0308C289.269 73.9181 288.526 72.1099 287.04 70.606C285.536 69.12 283.728 68.377 281.615 68.377H271.142V83.6846H281.615C283.728 83.6846 285.536 82.9416 287.04 81.4556ZM270.417 101.275C269.933 101.758 269.351 102 268.671 102C267.991 102 267.418 101.758 266.952 101.275C266.469 100.809 266.227 100.236 266.227 99.5562V65.9062C266.227 65.2438 266.469 64.6709 266.952 64.1875C267.418 63.7041 267.991 63.4624 268.671 63.4624H281.615C285.089 63.4624 288.052 64.6888 290.504 67.1416C292.957 69.6123 294.184 72.5754 294.184 76.0308C294.184 78.8953 293.306 81.4556 291.552 83.7114C289.833 85.9315 287.631 87.4085 284.945 88.1426L293.915 97.8911C294.381 98.3924 294.604 98.9743 294.586 99.6367C294.551 100.317 294.282 100.89 293.781 101.355C293.315 101.785 292.76 102 292.116 102C291.4 102 290.8 101.74 290.316 101.221L278.688 88.5991H271.142V99.5562C271.142 100.236 270.9 100.809 270.417 101.275ZM325.578 102H302.455C301.775 102 301.202 101.758 300.736 101.275C300.253 100.809 300.011 100.236 300.011 99.5562V65.9062C300.011 65.2438 300.253 64.6709 300.736 64.1875C301.202 63.7041 301.775 63.4624 302.455 63.4624H325.578C326.258 63.4624 326.84 63.7041 327.323 64.1875C327.807 64.6709 328.048 65.2438 328.048 65.9062C328.048 66.5866 327.807 67.1685 327.323 67.6519C326.84 68.1353 326.258 68.377 325.578 68.377H304.926V80.2739H319.992C320.654 80.2739 321.227 80.5156 321.71 80.999C322.194 81.4824 322.436 82.0643 322.436 82.7446C322.436 83.4071 322.194 83.98 321.71 84.4634C321.227 84.9468 320.654 85.1885 319.992 85.1885H304.926V97.0854H325.578C326.258 97.0854 326.84 97.3271 327.323 97.8105C327.807 98.2939 328.048 98.8758 328.048 99.5562C328.048 100.236 327.807 100.809 327.323 101.275C326.84 101.758 326.258 102 325.578 102Z" fill="white"/>
</svg>
