<svg width="333" height="210" viewBox="0 0 333 210" fill="none" xmlns="http://www.w3.org/2000/svg">
<path d="M251.45 47.7779C251.336 46.1577 250.139 45.1522 249.114 44.0907C244.898 39.5097 240.683 34.9287 236.467 30.4035C235.898 29.789 234.872 29.3421 235.328 28.2806C235.784 27.275 236.866 27.6102 237.721 27.6102C243.816 27.2192 249.969 26.7722 256.121 26.6046C260.394 26.4929 262.331 24.761 262.274 20.4035C262.274 14.7052 262.672 8.95095 262.957 3.25261C262.957 2.30288 262.502 1.01797 263.641 0.459304C265.065 -0.211088 265.806 1.07383 266.66 1.80009C271.104 5.76658 275.547 9.6772 279.877 13.7554C282.668 16.437 285.175 16.437 288.023 13.7554C292.695 9.39787 297.537 5.20791 302.322 1.01796C302.835 0.571028 303.632 -0.0993666 304.145 0.0123656C305.284 0.23583 305 1.35316 305.057 2.19115C305.284 8.50402 305.626 14.8169 305.797 21.0739C305.911 24.7052 307.62 26.3812 311.323 26.4929C317.76 26.7164 324.198 27.2192 330.578 27.6102C331.433 27.6102 332.515 27.275 332.914 28.3365C333.313 29.3979 332.23 29.8449 331.661 30.4594C327.502 34.8728 323.457 39.3979 319.185 43.6996C316.165 46.7164 316.108 49.2863 319.185 52.3589C323.4 56.5488 327.331 60.9623 331.376 65.2639C332.059 65.9902 333.313 66.5489 332.743 67.7221C332.173 68.8394 330.92 68.4483 329.951 68.5042C323.685 68.8952 317.419 69.4539 311.152 69.6215C307.506 69.6774 306.025 71.3533 305.911 74.6494C305.683 80.9623 305.398 87.2752 305.17 93.588C305.17 94.426 305.512 95.4875 304.487 95.9344C303.461 96.3814 302.949 95.3758 302.322 94.8171C297.537 90.6271 292.695 86.4372 288.023 82.1355C285.289 79.5657 282.896 79.7333 280.219 82.1355C275.718 86.2696 271.218 90.2919 266.66 94.3143C265.92 94.9847 265.236 96.0462 264.04 95.5434C262.729 95.0406 263.242 93.8115 263.185 92.8618C262.9 87.1635 262.445 81.4092 262.445 75.7109C262.445 71.5209 261.02 69.5656 256.463 69.5098C250.31 69.5098 244.215 68.7835 238.119 68.3925C237.265 68.3925 236.182 68.6159 235.67 67.7221C234.986 66.493 236.239 65.9343 236.923 65.2081C241.139 60.6271 245.354 56.1019 249.57 51.465C250.538 50.4036 251.735 49.3421 251.678 47.722L251.45 47.7779Z" fill="white"/>
<path d="M236.041 170.651C230.253 173.013 225.892 176.985 222.694 182.306C222.139 183.215 222.06 184.876 221.082 184.902C219.972 184.928 219.972 183.241 219.417 182.332C216.457 177.374 212.414 173.584 207.128 171.118C206.784 170.963 206.203 171.014 206.15 170.521C206.071 169.924 206.652 169.82 207.102 169.613C213.127 166.861 217.567 162.578 220.289 156.608C220.448 156.244 220.58 155.803 221.056 155.751C221.479 155.725 221.584 156.114 221.717 156.426C224.518 162.604 229.117 167.017 235.38 169.794C235.697 169.924 235.962 170.158 236.014 170.651H236.041Z" fill="white"/>
<path d="M66.5376 39.0198C66.5376 31.2538 66.5376 23.4878 66.5376 15.7218C66.5376 13.0275 66.6451 10.2804 70.1951 10.386C73.4223 10.4388 73.5836 13.1332 73.5836 15.6162C73.5836 29.9331 73.5299 44.1971 73.5836 58.514C73.745 79.7516 85.5243 96.393 105.748 103.842C109.836 105.321 114.139 106.272 118.603 106.325C124.09 106.325 129.63 106.484 135.116 106.378C137.698 106.378 139.957 107.065 140.064 109.706C140.226 112.77 137.644 113.351 135.008 113.351C130.329 113.351 125.649 113.246 121.024 113.404C100.531 114.091 86.0622 123.812 77.4025 141.932C74.8745 147.215 73.6374 152.974 73.5836 158.891C73.4761 171.359 73.5298 183.879 73.5298 196.347C73.5298 198.83 73.5298 201.366 73.5298 203.849C73.5298 206.385 73.745 209.343 70.0875 209.343C66.4838 209.343 66.5376 206.596 66.5376 203.955C66.5376 191.328 66.5376 178.702 66.5376 166.076C66.5376 160.528 66.5376 155.034 65.1929 149.54C60.4596 129.359 42.0107 114.25 20.8187 113.51C15.6014 113.351 10.384 113.404 5.11293 113.404C2.53116 113.404 -0.104388 113.034 0.00318535 109.865C0.110759 106.853 2.53117 106.431 5.22051 106.378C13.6651 106.219 22.1096 107.012 30.5541 104.951C50.4015 100.144 65.7308 82.0233 66.3762 62.0008C66.6451 54.3933 66.3762 46.733 66.3762 39.1255C66.3762 39.1255 66.3762 39.1255 66.43 39.1255L66.5376 39.0198ZM100.101 110.446C99.993 109.389 99.4551 108.967 98.8097 108.702C86.0622 103.05 76.7033 94.0685 71.0019 81.495C70.7329 80.861 70.5178 80.0686 69.6572 80.1214C68.6353 80.1742 68.4201 81.0724 68.0974 81.8648C62.5573 94.0157 53.5211 102.733 41.2577 108.333C40.3971 108.755 39.2138 108.967 39.3214 110.182C39.429 111.185 40.6123 111.08 41.3115 111.397C52.1227 116.416 60.2983 124.129 66.3224 134.219C67.3981 136.068 67.3981 139.502 69.711 139.449C71.7011 139.449 71.8625 136.015 72.992 134.166C79.4464 123.336 88.375 115.253 100.154 110.446H100.101Z" fill="white"/>
<path d="M100.155 110.394C88.3752 115.201 79.5004 123.284 72.9922 134.114C71.8627 135.963 71.7013 139.344 69.7112 139.397C67.4521 139.45 67.4521 136.016 66.3226 134.167C60.2985 124.077 52.0691 116.364 41.3117 111.345C40.6125 111.028 39.4292 111.133 39.3216 110.13C39.1602 108.914 40.3435 108.703 41.2579 108.281C53.5213 102.681 62.5575 93.9636 68.0976 81.8128C68.4203 81.0732 68.6893 80.1751 69.6574 80.0694C70.518 80.0166 70.7332 80.809 71.0021 81.443C76.7035 94.0165 86.0624 102.998 98.8099 108.65C99.4553 108.915 99.9932 109.39 100.101 110.394H100.155Z" fill="white"/>
</svg>
