<svg width="53" height="77" viewBox="0 0 53 77" fill="none" xmlns="http://www.w3.org/2000/svg">
<path d="M25.1764 11.0319C25.1764 8.04016 25.1764 5.04845 25.1764 2.05673C25.1764 1.01879 25.2171 -0.0395047 26.5603 0.0011989C27.7814 0.0215507 27.8425 1.0595 27.8425 2.01603C27.8425 7.53137 27.8221 13.0263 27.8425 18.5417C27.9035 26.7231 32.3606 33.1339 40.0128 36.0035C41.5596 36.5734 43.1877 36.9397 44.8769 36.9601C46.9528 36.9601 49.049 37.0211 51.1249 36.9804C52.1018 36.9804 52.9566 37.245 52.9973 38.2626C53.0583 39.443 52.0814 39.6669 51.0842 39.6669C49.3136 39.6669 47.543 39.6261 45.7927 39.6872C38.0387 39.9518 32.5641 43.6965 29.2874 50.6772C28.3309 52.7124 27.8628 54.9307 27.8425 57.2101C27.8018 62.0131 27.8221 66.8365 27.8221 71.6395C27.8221 72.5961 27.8221 73.573 27.8221 74.5295C27.8221 75.5064 27.9035 76.6461 26.5196 76.6461C25.156 76.6461 25.1764 75.5878 25.1764 74.5702C25.1764 69.7061 25.1764 64.842 25.1764 59.9779C25.1764 57.841 25.1764 55.7244 24.6676 53.6078C22.8766 45.8334 15.896 40.0128 7.87735 39.7279C5.90322 39.6669 3.9291 39.6872 1.93462 39.6872C0.957737 39.6872 -0.0394983 39.5447 0.00120527 38.3236C0.0419089 37.1636 0.957738 37.0008 1.97533 36.9804C5.17056 36.9194 8.36579 37.2246 11.561 36.4309C19.0708 34.5789 24.8711 27.5982 25.1153 19.8849C25.2171 16.9542 25.1153 14.0032 25.1153 11.0726C25.1153 11.0726 25.1153 11.0726 25.1357 11.0726L25.1764 11.0319ZM37.8759 38.5475C37.8352 38.1405 37.6317 37.9776 37.3874 37.8759C32.5641 35.6982 29.0229 32.2384 26.8656 27.3947C26.7638 27.1505 26.6824 26.8452 26.3568 26.8656C25.9701 26.8859 25.8887 27.2319 25.7666 27.5372C23.6703 32.2181 20.2512 35.5761 15.611 37.7334C15.2854 37.8962 14.8377 37.9776 14.8784 38.4457C14.9191 38.8324 15.3668 38.7917 15.6314 38.9138C19.7221 40.8473 22.8156 43.8186 25.095 47.7058C25.502 48.4181 25.502 49.741 26.3771 49.7206C27.1301 49.7206 27.1912 48.3978 27.6186 47.6855C30.0608 43.5133 33.4392 40.3995 37.8962 38.5475H37.8759Z" fill="white"/>
<path d="M37.8963 38.5274C33.4393 40.3794 30.0812 43.4932 27.6187 47.6653C27.1913 48.3776 27.1302 49.6802 26.3772 49.7005C25.5224 49.7209 25.5224 48.398 25.095 47.6857C22.8156 43.7985 19.7018 40.8271 15.6315 38.8937C15.3669 38.7716 14.9191 38.8123 14.8784 38.4256C14.8174 37.9575 15.2651 37.8761 15.6111 37.7133C20.2513 35.556 23.6704 32.198 25.7667 27.5171C25.8888 27.2321 25.9905 26.8862 26.3569 26.8454C26.6825 26.8251 26.7639 27.1304 26.8657 27.3746C29.0229 32.2183 32.5642 35.6781 37.3875 37.8558C37.6317 37.9575 37.8353 38.1407 37.876 38.5274H37.8963Z" fill="white"/>
</svg>
