<svg width="69" height="68" viewBox="0 0 69 68" fill="none" xmlns="http://www.w3.org/2000/svg">
<path fill-rule="evenodd" clip-rule="evenodd" d="M43.8304 16.4209H24.5679C20.2309 16.4209 16.7019 19.981 16.7019 24.3529V43.6761C16.7019 48.0494 20.2324 51.608 24.5679 51.608H43.8304C48.1673 51.608 51.6964 48.0479 51.6964 43.6761V24.3529C51.6964 19.9795 48.1659 16.4209 43.8304 16.4209ZM34.2499 45.6082H34.1484C27.8953 45.6082 22.7519 40.4216 22.7519 34.0137C22.7519 27.6058 27.8953 22.4192 34.1484 22.4192H34.2499C40.503 22.4192 45.7479 27.7082 45.7479 34.0137C45.7479 40.3193 40.503 45.6082 34.2499 45.6082ZM45.5463 25.0652C44.135 25.0652 43.1255 23.9463 43.1255 22.624C43.1255 21.3018 44.1335 20.1828 45.5463 20.1828C46.8576 20.1828 47.9672 21.3018 47.9672 22.624C47.9672 23.9463 46.8576 25.0652 45.5463 25.0652Z" fill="white"/>
<path fill-rule="evenodd" clip-rule="evenodd" d="M34.2522 25.8037H34.1461C29.8271 25.8037 26.2458 29.325 26.2458 33.5717C26.2458 37.8184 29.8271 41.4424 34.1461 41.4424H34.2522C38.5712 41.4424 42.1524 37.9212 42.1524 33.5717C42.1524 29.2222 38.5712 25.8037 34.2522 25.8037Z" fill="white"/>
<path fill-rule="evenodd" clip-rule="evenodd" d="M34.1991 0C15.3117 0 0 15.0538 0 33.6233C0 52.1927 15.3117 67.2466 34.1991 67.2466C53.0866 67.2466 68.3983 52.1927 68.3983 33.6233C68.3983 15.0538 53.0866 0 34.1991 0ZM56.0358 43.4613C56.0358 49.8151 50.72 55.0414 44.2573 55.0414H24.1394C17.6768 55.0414 12.361 49.8151 12.361 43.4613V23.7853C12.361 17.4315 17.6768 12.2052 24.1394 12.2052H44.2573C50.72 12.2052 56.0358 17.4315 56.0358 23.7853V43.4613Z" fill="white"/>
</svg>
