<svg width="399" height="356" viewBox="0 0 399 356" fill="none" xmlns="http://www.w3.org/2000/svg">
<path d="M333.125 104.62C333.17 101.748 333.215 98.8756 333.26 96.0033C333.276 95.0141 333.33 93.9876 334.623 94.0459C335.783 94.0832 335.825 95.0732 335.81 96.0053C335.727 101.293 335.625 106.581 335.561 111.85C335.495 119.707 339.678 125.918 346.977 128.773C348.452 129.348 350.006 129.734 351.623 129.759C353.62 129.791 355.617 129.879 357.634 129.873C358.566 129.887 359.38 130.167 359.402 131.137C359.442 132.279 358.506 132.474 357.555 132.459C355.862 132.432 354.17 132.368 352.476 132.398C345.034 132.548 339.728 136.06 336.484 142.688C335.541 144.633 335.051 146.756 334.997 148.924C334.887 153.546 334.833 158.149 334.761 162.771C334.746 163.704 334.732 164.617 334.717 165.549C334.703 166.481 334.762 167.566 333.43 167.564C332.117 167.544 332.152 166.517 332.168 165.547C332.241 160.886 332.314 156.207 332.388 151.547C332.42 149.492 332.452 147.476 332.008 145.433C330.394 137.95 323.805 132.252 316.125 131.865C314.224 131.759 312.321 131.767 310.438 131.738C309.506 131.723 308.538 131.575 308.594 130.396C308.65 129.293 309.547 129.136 310.517 129.132C313.58 129.123 316.657 129.457 319.713 128.744C326.931 127.069 332.609 120.48 332.973 113.065C333.113 110.252 333.062 107.416 333.106 104.601C333.106 104.601 333.106 104.601 333.125 104.601L333.125 104.62ZM344.903 131.195C344.871 130.814 344.684 130.64 344.438 130.541C339.849 128.376 336.496 125.012 334.496 120.319C334.404 120.09 334.333 119.784 334.009 119.817C333.647 119.83 333.566 120.172 333.428 120.436C331.36 124.913 328 128.056 323.536 130.06C323.21 130.207 322.79 130.296 322.821 130.734C322.853 131.096 323.272 131.064 323.537 131.202C327.426 133.108 330.368 136.008 332.497 139.771C332.885 140.462 332.865 141.737 333.684 141.73C334.406 141.742 334.483 140.468 334.894 139.79C337.296 135.832 340.596 132.897 344.884 131.194L344.903 131.195Z" fill="white"/>
<path d="M344.903 131.195C340.615 132.897 337.315 135.832 334.912 139.79C334.502 140.469 334.406 141.723 333.702 141.731C332.884 141.737 332.904 140.462 332.515 139.771C330.386 136.009 327.445 133.109 323.555 131.202C323.291 131.065 322.872 131.096 322.84 130.734C322.79 130.296 323.229 130.207 323.554 130.06C328.038 128.057 331.379 124.894 333.447 120.436C333.585 120.153 333.666 119.831 334.028 119.817C334.351 119.804 334.404 120.09 334.514 120.32C336.515 125.013 339.867 128.376 344.457 130.541C344.683 130.659 344.89 130.814 344.922 131.195L344.903 131.195Z" fill="white"/>
<path d="M16.7676 89.3721C16.5752 93.0016 14.8985 95.0548 11.8338 95.3853C8.56156 95.7422 6.0131 94.2432 5.71692 90.5413C5.48552 87.5025 7.24949 85.3807 10.1278 85.0929C13.2539 84.7929 15.6702 86.3087 16.7676 89.3721Z" fill="white"/>
<path d="M389.428 240.002C389.537 243.133 387.86 245.033 385.13 245.436C382.099 245.877 379.119 244.912 378.705 241.187C378.355 237.971 380.447 235.865 383.415 235.528C386.383 235.191 388.54 236.777 389.428 240.002Z" fill="white"/>
<path d="M229.096 283.757C225.904 283.988 223.245 282.829 222.65 279.645C222.098 276.646 224.084 274.612 226.99 274.244C230.01 273.861 232.523 275.077 233.174 278.408C233.798 281.666 231.851 283.254 229.096 283.757Z" fill="white"/>
<path d="M165.911 156.855C162.861 157.298 160.342 156.333 159.737 152.919C159.187 149.786 161.111 147.874 163.883 147.351C166.822 146.787 169.488 147.696 170.05 151.23C170.542 154.351 168.756 156.149 165.914 156.874L165.911 156.855Z" fill="white"/>
<path d="M232.977 209.457C232.242 210.47 231.507 211.484 230.794 212.514C230.229 213.352 229.595 213.49 228.77 212.885C226.722 211.399 224.636 209.919 222.571 208.454C221.728 207.851 221.585 207.179 222.221 206.293C223.693 204.285 225.159 202.239 226.588 200.198C227.205 199.315 227.866 199.231 228.73 199.85C230.781 201.355 232.848 202.838 234.929 204.281C235.773 204.884 235.851 205.507 235.225 206.315C234.453 207.333 233.706 208.406 232.958 209.459L232.977 209.457ZM226.18 204.392C225.707 205.047 225.273 205.715 224.76 206.355C224.313 206.911 224.434 207.26 224.979 207.632C226.326 208.573 227.675 209.534 228.988 210.518C229.496 210.895 229.762 210.727 230.052 210.287C230.471 209.659 230.951 209.061 231.368 208.414C231.964 207.514 233.163 206.691 233.063 205.745C232.931 204.707 231.482 204.315 230.594 203.661C228.035 201.779 228.018 201.801 226.142 204.397L226.18 204.392Z" fill="white"/>
<path d="M107.92 102.01C107.269 98.0851 109.793 94.5439 113.735 93.8722C117.677 93.2004 121.306 95.8091 121.944 99.7935C122.564 103.627 119.92 107.279 116.049 107.904C112.178 108.528 108.587 105.915 107.941 102.027L107.92 102.01ZM113.904 96.1135C111.311 96.5377 109.529 98.9687 109.932 101.545C110.337 104.14 112.952 106.014 115.505 105.576C117.979 105.128 119.832 102.496 119.403 100.019C118.965 97.467 116.48 95.7106 113.904 96.1135Z" fill="white"/>
<path d="M22.6099 92.199L100.552 98.3412" stroke="white" stroke-width="2.57" stroke-miterlimit="10" stroke-linecap="round"/>
<path d="M126.297 111.151L157.766 142.047" stroke="white" stroke-width="2.57" stroke-miterlimit="10" stroke-linecap="round"/>
<path d="M172.987 159.43L219.775 200.755" stroke="white" stroke-width="2.57" stroke-miterlimit="10" stroke-linecap="round"/>
<path d="M240.073 210.227L373.477 237.611" stroke="white" stroke-width="2.57" stroke-miterlimit="10" stroke-linecap="round"/>
<path d="M223.616 215.187L225.982 269.155" stroke="white" stroke-width="2.57" stroke-miterlimit="10" stroke-linecap="round"/>
<path d="M380.304 250.783L345.355 317.186L238.112 282.27" stroke="white" stroke-width="2.57" stroke-miterlimit="10" stroke-linecap="round"/>
<path d="M57.2795 43.7208C58.9056 42.3909 60.3106 38.8015 62.8402 38.7457C65.3697 38.6898 67.0434 42.097 69.1201 43.935C70.8278 45.4386 72.4054 47.0783 74.0569 48.6212C75.2034 49.6995 75.4138 50.6082 74.1283 51.8545C71.13 54.8131 68.2294 57.8837 65.3676 60.9915C63.9739 62.5065 62.8543 62.6454 61.3363 61.1186C58.4555 58.1947 55.4813 55.349 52.433 52.6001C50.9772 51.3002 50.8023 50.2766 52.275 48.893C53.8407 47.4122 55.289 45.7818 57.2605 43.7212L57.2795 43.7208Z" fill="white"/>
</svg>
