<svg width="181" height="188" viewBox="0 0 181 188" fill="none" xmlns="http://www.w3.org/2000/svg">
<path d="M152.391 11.0977C152.391 8.08945 152.411 5.08121 152.391 2.07297C152.391 1.03702 152.431 -0.0387703 153.794 0.00107393C155.016 0.020996 155.076 1.05695 155.076 2.03313C155.076 7.57147 155.056 13.1098 155.096 18.6282C155.156 26.8561 159.665 33.2909 167.401 36.1597C168.964 36.7374 170.607 37.116 172.31 37.116C174.414 37.116 176.518 37.1757 178.643 37.1359C179.625 37.116 180.486 37.4148 180.526 38.4308C180.586 39.6261 179.605 39.8453 178.603 39.8453C176.819 39.8453 175.036 39.8054 173.252 39.8652C165.417 40.1441 159.886 43.9094 156.579 50.902C155.617 52.954 155.136 55.1853 155.116 57.4564C155.076 62.2975 155.096 67.1186 155.096 71.9597C155.096 72.9359 155.096 73.8921 155.096 74.8683C155.096 75.8445 155.177 76.9801 153.774 77C152.391 77 152.411 75.9242 152.411 74.9082C152.431 70.0273 152.431 65.1264 152.411 60.2455C152.411 58.0939 152.411 55.9822 151.91 53.8505C150.087 46.0411 143.053 40.184 134.957 39.905C132.953 39.8254 130.949 39.8652 128.965 39.8652C127.983 39.8652 126.961 39.7257 127.001 38.4906C127.041 37.3351 127.983 37.1558 129.005 37.1359C132.231 37.0761 135.478 37.3749 138.684 36.5781C146.259 34.7054 152.131 27.7127 152.391 19.9431C152.491 16.9946 152.411 14.0262 152.411 11.0778C152.371 11.0977 152.371 11.0977 152.391 11.0977ZM165.236 38.7496C165.196 38.3511 164.996 38.1718 164.735 38.0722C159.866 35.8808 156.279 32.4143 154.094 27.5334C153.994 27.2944 153.914 26.9756 153.573 27.0154C153.193 27.0354 153.112 27.394 152.972 27.6729C150.868 32.3944 147.381 35.7413 142.712 37.9128C142.371 38.0722 141.93 38.1718 141.971 38.63C142.011 39.0086 142.452 38.9687 142.732 39.1082C146.86 41.0406 150.006 44.0289 152.311 47.9337C152.732 48.6508 152.732 49.9856 153.593 49.9657C154.355 49.9458 154.415 48.6309 154.836 47.9137C157.321 43.7301 160.727 40.6023 165.236 38.7496Z" fill="white"/>
<path d="M165.236 38.7495C160.748 40.6022 157.321 43.73 154.856 47.9136C154.435 48.6308 154.355 49.9457 153.613 49.9656C152.752 49.9855 152.752 48.6508 152.331 47.9336C150.026 44.0288 146.88 41.0405 142.752 39.1081C142.472 38.9686 142.031 39.0085 141.991 38.6299C141.931 38.1717 142.391 38.0721 142.732 37.9127C147.421 35.7412 150.888 32.3744 152.992 27.6728C153.133 27.3739 153.213 27.0353 153.593 27.0154C153.934 26.9954 153.994 27.2943 154.114 27.5333C156.299 32.4142 159.886 35.8807 164.755 38.0721C164.976 38.1717 165.196 38.3311 165.236 38.7495Z" fill="white"/>
<path d="M7.8724 165.799C9.85736 164.361 11.7172 160.307 14.6855 160.39C17.6538 160.473 19.4133 164.497 21.7383 166.736C23.6507 168.569 25.4024 170.551 27.2466 172.425C28.5264 173.735 28.719 174.794 27.1384 176.155C23.4484 179.39 19.8662 182.759 16.3274 186.173C14.6038 187.838 13.2833 187.932 11.5947 186.084C8.39156 182.547 5.07432 179.094 1.66463 175.748C0.0353433 174.165 -0.108822 172.975 1.6995 171.467C3.6226 169.852 5.41689 168.057 7.85008 165.798L7.8724 165.799Z" fill="white"/>
</svg>
