<svg width="143" height="271" viewBox="0 0 143 271" fill="none" xmlns="http://www.w3.org/2000/svg">
<path d="M26.1764 11.1815C26.1764 8.24017 26.1764 5.29883 26.1764 2.35749C26.1764 1.33703 26.2171 0.29655 27.5603 0.336568C28.7814 0.356577 28.8425 1.37704 28.8425 2.31747C28.8425 7.73994 28.8221 13.1424 28.8425 18.5649C28.9035 26.6085 33.3606 32.9114 41.0128 35.7327C42.5596 36.2929 44.1877 36.6531 45.8769 36.6731C47.9528 36.6731 50.049 36.7331 52.1249 36.6931C53.1018 36.6931 53.9566 36.9532 53.9973 37.9537C54.0583 39.1142 53.0814 39.3343 52.0842 39.3343C50.3136 39.3343 48.543 39.2943 46.7927 39.3543C39.0387 39.6144 33.5641 43.2961 30.2874 50.1592C29.3309 52.1602 28.8628 54.3411 28.8425 56.5822C28.8018 61.3043 28.8221 66.0465 28.8221 70.7686C28.8221 71.7091 28.8221 72.6695 28.8221 73.6099C28.8221 74.5704 28.9035 75.6909 27.5196 75.6909C26.156 75.6909 26.1764 74.6504 26.1764 73.6499C26.1764 68.8678 26.1764 64.0856 26.1764 59.3034C26.1764 57.2024 26.1764 55.1215 25.6676 53.0406C23.8766 45.3971 16.896 39.6745 8.87735 39.3943C6.90322 39.3343 4.9291 39.3543 2.93462 39.3543C1.95774 39.3543 0.960502 39.2143 1.00121 38.0137C1.04191 36.8732 1.95774 36.7131 2.97533 36.6931C6.17056 36.6331 9.36579 36.9332 12.561 36.1529C20.0708 34.332 25.8711 27.4689 26.1153 19.8855C26.2171 17.0042 26.1153 14.1028 26.1153 11.2215C26.1153 11.2215 26.1153 11.2215 26.1357 11.2215L26.1764 11.1815ZM38.8759 38.2338C38.8352 37.8336 38.6317 37.6736 38.3874 37.5735C33.5641 35.4325 30.0229 32.031 27.8656 27.2688C27.7638 27.0287 27.6824 26.7286 27.3568 26.7486C26.9701 26.7686 26.8887 27.1088 26.7666 27.4089C24.6703 32.011 21.2512 35.3125 16.611 37.4335C16.2854 37.5935 15.8377 37.6736 15.8784 38.1338C15.9191 38.5139 16.3668 38.4739 16.6314 38.594C20.7221 40.4948 23.8156 43.4162 26.095 47.2379C26.502 47.9382 26.502 49.2388 27.3771 49.2188C28.1301 49.2188 28.1912 47.9182 28.6186 47.2179C31.0608 43.116 34.4392 40.0546 38.8962 38.2338H38.8759Z" fill="white"/>
<path d="M38.8963 38.214C34.4393 40.0348 31.0812 43.0962 28.6187 47.1981C28.1913 47.8984 28.1302 49.179 27.3772 49.199C26.5224 49.219 26.5224 47.9184 26.095 47.2181C23.8156 43.3964 20.7018 40.475 16.6315 38.5742C16.3669 38.4541 15.9191 38.4941 15.8784 38.114C15.8174 37.6537 16.2651 37.5737 16.6111 37.4136C21.2513 35.2927 24.6704 31.9912 26.7667 27.3891C26.8888 27.1089 26.9905 26.7688 27.3569 26.7288C27.6825 26.7088 27.7639 27.0089 27.8657 27.249C30.0229 32.0112 33.5642 35.4127 38.3875 37.5537C38.6318 37.6538 38.8353 37.8338 38.876 38.214H38.8963Z" fill="white"/>
<path d="M25.391 11.0977C25.391 8.08945 25.4111 5.08121 25.391 2.07297C25.391 1.03702 25.4311 -0.0387703 26.7938 0.00107393C28.0162 0.020996 28.0763 1.05695 28.0763 2.03313C28.0763 7.57147 28.0563 13.1098 28.0963 18.6282C28.1565 26.8561 32.6653 33.2909 40.4005 36.1597C41.9636 36.7374 43.6068 37.116 45.3102 37.116C47.4143 37.116 49.5184 37.1757 51.6426 37.1359C52.6245 37.116 53.4862 37.4148 53.5263 38.4308C53.5864 39.6261 52.6045 39.8453 51.6025 39.8453C49.819 39.8453 48.0355 39.8054 46.252 39.8652C38.4166 40.1441 32.8858 43.9094 29.5793 50.902C28.6174 52.954 28.1364 55.1853 28.1164 57.4564C28.0763 62.2975 28.0963 67.1186 28.0963 71.9597C28.0963 72.9359 28.0963 73.8921 28.0963 74.8683C28.0963 75.8445 28.1765 76.9801 26.7738 77C25.391 77 25.4111 75.9242 25.4111 74.9082C25.4311 70.0273 25.4311 65.1264 25.4111 60.2455C25.4111 58.0939 25.4111 55.9822 24.9101 53.8505C23.0865 46.0411 16.0527 40.184 7.95677 39.905C5.95284 39.8254 3.9489 39.8652 1.965 39.8652C0.983071 39.8652 -0.0389369 39.7257 0.00114182 38.4906C0.0412206 37.3351 0.983071 37.1558 2.00508 37.1359C5.23142 37.0761 8.4778 37.3749 11.6841 36.5781C19.259 34.7054 25.1305 27.7127 25.391 19.9431C25.4912 16.9946 25.4111 14.0262 25.4111 11.0778C25.371 11.0977 25.371 11.0977 25.391 11.0977ZM38.2363 38.7496C38.1962 38.3511 37.9958 38.1718 37.7353 38.0722C32.8657 35.8808 29.2787 32.4143 27.0944 27.5334C26.9942 27.2944 26.914 26.9756 26.5734 27.0154C26.1926 27.0354 26.1125 27.394 25.9722 27.6729C23.868 32.3944 20.3812 35.7413 15.712 37.9128C15.3713 38.0722 14.9305 38.1718 14.9706 38.63C15.0106 39.0086 15.4515 38.9687 15.7321 39.1082C19.8602 41.0406 23.0063 44.0289 25.3109 47.9337C25.7317 48.6508 25.7317 49.9856 26.5934 49.9657C27.3549 49.9458 27.415 48.6309 27.8358 47.9137C30.3207 43.7301 33.7274 40.6023 38.2363 38.7496Z" fill="white"/>
<path d="M38.2363 38.7495C33.7475 40.6022 30.3208 43.73 27.8559 47.9136C27.4351 48.6308 27.3549 49.9457 26.6135 49.9656C25.7518 49.9855 25.7518 48.6508 25.331 47.9336C23.0264 44.0288 19.8803 41.0405 15.7521 39.1081C15.4716 38.9686 15.0307 39.0085 14.9907 38.6299C14.9305 38.1717 15.3914 38.0721 15.7321 37.9127C20.4213 35.7412 23.8881 32.3744 25.9923 27.6728C26.1325 27.374 26.2127 27.0353 26.5935 27.0154C26.9341 26.9954 26.9942 27.2943 27.1145 27.5333C29.2988 32.4142 32.8858 35.8807 37.7554 38.0721C37.9758 38.1717 38.1962 38.3311 38.2363 38.7495Z" fill="white"/>
<path d="M25.391 11.0977C25.391 8.08945 25.4111 5.08121 25.391 2.07297C25.391 1.03702 25.4311 -0.0387703 26.7938 0.00107393C28.0162 0.020996 28.0763 1.05695 28.0763 2.03313C28.0763 7.57147 28.0563 13.1098 28.0963 18.6282C28.1565 26.8561 32.6653 33.2909 40.4005 36.1597C41.9636 36.7374 43.6068 37.116 45.3102 37.116C47.4143 37.116 49.5184 37.1757 51.6426 37.1359C52.6245 37.116 53.4862 37.4148 53.5263 38.4308C53.5864 39.6261 52.6045 39.8453 51.6025 39.8453C49.819 39.8453 48.0355 39.8054 46.252 39.8652C38.4166 40.1441 32.8858 43.9094 29.5793 50.902C28.6174 52.954 28.1364 55.1853 28.1164 57.4564C28.0763 62.2975 28.0963 67.1186 28.0963 71.9597C28.0963 72.9359 28.0963 73.8921 28.0963 74.8683C28.0963 75.8445 28.1765 76.9801 26.7738 77C25.391 77 25.4111 75.9242 25.4111 74.9082C25.4311 70.0273 25.4311 65.1264 25.4111 60.2455C25.4111 58.0939 25.4111 55.9822 24.9101 53.8505C23.0865 46.0411 16.0527 40.184 7.95677 39.905C5.95284 39.8254 3.9489 39.8652 1.965 39.8652C0.983071 39.8652 -0.0389369 39.7257 0.00114182 38.4906C0.0412206 37.3351 0.983071 37.1558 2.00508 37.1359C5.23142 37.0761 8.4778 37.3749 11.6841 36.5781C19.259 34.7054 25.1305 27.7127 25.391 19.9431C25.4912 16.9946 25.4111 14.0262 25.4111 11.0778C25.371 11.0977 25.371 11.0977 25.391 11.0977ZM38.2363 38.7496C38.1962 38.3511 37.9958 38.1718 37.7353 38.0722C32.8657 35.8808 29.2787 32.4143 27.0944 27.5334C26.9942 27.2944 26.914 26.9756 26.5734 27.0154C26.1926 27.0354 26.1125 27.394 25.9722 27.6729C23.868 32.3944 20.3812 35.7413 15.712 37.9128C15.3713 38.0722 14.9305 38.1718 14.9706 38.63C15.0106 39.0086 15.4515 38.9687 15.7321 39.1082C19.8602 41.0406 23.0063 44.0289 25.3109 47.9337C25.7317 48.6508 25.7317 49.9856 26.5934 49.9657C27.3549 49.9458 27.415 48.6309 27.8358 47.9137C30.3207 43.7301 33.7274 40.6023 38.2363 38.7496Z" fill="white"/>
<path d="M38.2363 38.7495C33.7475 40.6022 30.3208 43.73 27.8559 47.9136C27.4351 48.6308 27.3549 49.9457 26.6135 49.9656C25.7518 49.9855 25.7518 48.6508 25.331 47.9336C23.0264 44.0288 19.8803 41.0405 15.7521 39.1081C15.4716 38.9686 15.0307 39.0085 14.9907 38.6299C14.9305 38.1717 15.3914 38.0721 15.7321 37.9127C20.4213 35.7412 23.8881 32.3744 25.9923 27.6728C26.1325 27.374 26.2127 27.0353 26.5935 27.0154C26.9341 26.9954 26.9942 27.2943 27.1145 27.5333C29.2988 32.4142 32.8858 35.8807 37.7554 38.0721C37.9758 38.1717 38.1962 38.3311 38.2363 38.7495Z" fill="white"/>
<path d="M128.371 238.421C128.371 236.951 128.371 235.481 128.371 234.011C128.371 233.501 128.391 232.981 129.051 233.001C129.651 233.011 129.681 233.521 129.681 233.991C129.681 236.701 129.671 239.401 129.681 242.111C129.711 246.131 131.901 249.281 135.661 250.691C136.421 250.971 137.221 251.151 138.051 251.161C139.071 251.161 140.101 251.191 141.121 251.171C141.601 251.171 142.021 251.301 142.041 251.801C142.071 252.381 141.591 252.491 141.101 252.491C140.231 252.491 139.361 252.471 138.501 252.501C134.691 252.631 132.001 254.471 130.391 257.901C129.921 258.901 129.691 259.991 129.681 261.111C129.661 263.471 129.671 265.841 129.671 268.201C129.671 268.671 129.671 269.151 129.671 269.621C129.671 270.101 129.711 270.661 129.031 270.661C128.361 270.661 128.371 270.141 128.371 269.641C128.371 267.251 128.371 264.861 128.371 262.471C128.371 261.421 128.371 260.381 128.121 259.341C127.241 255.521 123.811 252.661 119.871 252.521C118.901 252.491 117.931 252.501 116.951 252.501C116.471 252.501 115.981 252.431 116.001 251.831C116.021 251.261 116.471 251.181 116.971 251.171C118.541 251.141 120.111 251.291 121.681 250.901C125.371 249.991 128.221 246.561 128.341 242.771C128.391 241.331 128.341 239.881 128.341 238.441C128.341 238.441 128.341 238.441 128.351 238.441L128.371 238.421ZM134.611 251.941C134.591 251.741 134.491 251.661 134.371 251.611C132.001 250.541 130.261 248.841 129.201 246.461C129.151 246.341 129.111 246.191 128.951 246.201C128.761 246.211 128.721 246.381 128.661 246.531C127.631 248.831 125.951 250.481 123.671 251.541C123.511 251.621 123.291 251.661 123.311 251.891C123.331 252.081 123.551 252.061 123.681 252.121C125.691 253.071 127.211 254.531 128.331 256.441C128.531 256.791 128.531 257.441 128.961 257.431C129.331 257.431 129.361 256.781 129.571 256.431C130.771 254.381 132.431 252.851 134.621 251.941H134.611Z" fill="white"/>
</svg>
